<svg xmlns="http://www.w3.org/2000/svg" width="171" height="182" fill="none" viewBox="0 0 171 182"><g clip-path="url(#clip0_4200_625)"><path fill="#47576B" stroke="#fff" stroke-linejoin="round" stroke-width="1.168" d="M111.302 47.1108L111.592 46.6019L111.421 44.9304L110.888 45.0762L110.43 47.0635L111.302 47.1108ZM146 78.1418L145.272 77.0522L144.349 74.7272L143.863 72.426L143.305 71.433L142.283 67.7026L141.483 66.3464L140.149 65.136L138.865 64.6282L137.412 65.5988L135.886 66.3028L134.821 68.1692L134.096 70.2294L133.491 70.1085L132.523 71.8055L130.197 71.1532L129.615 70.5963L129.468 68.4888L129.879 67.3737L130.266 66.6946L131.501 66.4996L132.421 65.6748L132.758 62.7188L134.21 61.7482L134.451 60.5365L134.086 57.6297L134.23 56.5875L133.404 54.0956L132.07 52.8852L132.215 51.8429L133.377 51.3813L132.989 50.4855L132.164 49.5654L132.285 48.9598L131.024 48.016L129.28 47.9207L127.655 47.2192L126.637 46.6386L125.063 46.6399L123.753 44.9934L122.808 44.6794L121.306 44.9473L120.118 44.2701L118.228 43.6409L116.605 44.5143L115.468 46.1141L115.469 47.689L116.463 48.7057L116.415 49.5778L115.01 49.6762L113.726 50.7434L113.219 52.028L113.559 53.7966L113.343 56.1471L112.252 55.2998L112.036 57.6503L111.261 57.4329L111.599 56.0518L111.307 54.9858L111.598 54.4769L111.306 53.411L109.926 54.6476L109.225 56.2717L108.376 55.7876L107.796 56.8056L107.36 56.7819L107.047 59.3018L105.981 59.5934L105.594 60.2724L105.959 61.6049L106.155 64.4152L104.849 67.4933L104.002 68.5841L104.875 70.207L105.095 72.5811L104.587 73.8657L104.443 74.9079L104.904 76.0704L107.744 81.7394L108.521 83.5317L108.863 86.8752L108.769 90.1944L107.899 93.2962L106.932 94.9932L106.086 97.6589L105.119 99.3559L103.835 100.423L109.723 99.9577L119.148 98.8108L124.43 98.2246L124.479 98.9273L129.59 98.2445L137.972 96.9531L138.214 95.7414L139.398 93.2688L140.028 92.9536L140.291 89.7309L140.412 89.1254L140.993 88.1075L142.542 86.9674L142.395 84.8599L142.709 83.9149L143.653 82.654L144.501 83.138L144.6 84.5434L145.229 84.2282L145.809 83.2103L145.905 81.466L145.59 80.8368L145.999 78.1468L146 78.1418ZM129.104 38.373L127.893 38.1319L127.942 38.8346L126.732 40.1684L127.943 40.4095L129.349 40.3111L130.099 39.3897L129.104 38.373ZM119.698 34.3592L119.141 34.9411L118.146 33.9244L116.621 34.6283L114.294 33.9761L114.437 31.359L114.122 30.7298L112.547 30.731L109.835 32.3327L106.685 32.3352L104.457 33.0883L103.948 32.798L102.834 33.9617L100.848 35.0781L99.7107 36.6779L98.5227 36.0007L97.4331 36.7284L96.4388 35.7117L95.4701 35.8338L94.041 36.3683L92.9022 36.3932L92.4406 35.2307L91.665 35.0133L90.2826 33.1002L89.7973 32.3738L88.2704 31.5029L85.6533 31.3596L84.5874 31.6511L84.175 31.1914L82.868 32.6946L81.8993 32.8167L82.0911 30.9023L81.1449 29.0147L80.1998 28.7007L79.6416 27.7077L77.802 29.3567L77.1977 30.8107L75.6957 31.0786L74.8484 32.1694L73.3957 33.14L69.5924 33.8945L67.8257 35.8101L64.1445 37.5332L64.2903 38.0659L65.8415 38.5007L67.0308 40.7528L76.627 42.8522L79.5357 44.0614L81.3529 44.4233L82.2487 44.0346L84.236 44.4931L85.7143 44.6613L86.3934 45.0482L86.9036 46.9134L88.5514 47.1781L89.6422 48.0254L89.8384 50.8356L89.2342 52.2896L91.4146 52.4086L90.9797 53.9598L90.9317 54.832L92.1926 55.7758L92.6038 54.6607L94.2728 51.3402L94.8042 49.6196L95.6022 47.826L96.3286 47.3407L96.5939 45.693L97.273 46.0798L97.3951 47.0492L98.5576 46.5875L99.4522 44.6246L100.131 45.0114L101.051 44.1866L101.246 45.422L100.617 45.7372L100.012 47.1912L100.957 47.5052L101.659 45.8811L103.015 45.0806L104.007 42.9475L105.605 42.5102L109.481 42.0224L110.449 40.3254L112.387 40.0812L115.586 40.7808L117.502 42.5476L118.544 42.6921L118.349 41.4567L118.784 39.9055L120.868 40.1946L124.962 40.5061L126.125 40.0444L124.622 38.7375L124.67 37.8653L122.246 37.3831L122.803 36.8013L122.439 35.4687L123.577 35.4438L122.946 34.1854L123.187 32.9737L122.412 32.7563L121.322 33.4839L120.183 33.5088L119.699 34.3573L119.698 34.3592ZM88.1433 24.2346L87.3914 23.5811L85.2839 23.7282L83.8548 24.2627L81.7722 25.5485L80.4415 27.4878L80.3699 28.796L81.242 28.844L82.3584 30.83L83.737 28.0186L86.7142 24.7691L87.853 24.7442L88.1433 24.2346ZM80.3574 14.6228L79.1949 15.0844L77.2818 16.4668L74.836 17.9956L74.013 18.6503L74.7407 19.7399L76.3635 18.8665L76.4844 18.2609L78.7364 17.0717L79.6565 16.2469L80.358 14.6228H80.3574Z"/><path fill="#47576B" stroke="#fff" stroke-linejoin="round" stroke-width="1.168" d="M97.2536 52.8173L96.4793 54.1747L95.5834 54.5635L95.2452 55.9446L94.6646 56.9625L94.2534 58.0777L94.8116 59.0707L95.4906 59.4576L96.0712 58.4396L96.4095 57.0585L97.425 54.4893L97.2536 52.8179V52.8173ZM64.1426 37.5339L62.6643 37.3657L60.9673 36.3982L60.5805 37.0772L59.5874 37.6354L59.8273 34.8488L60.6016 33.4914L59.7768 32.5713L58.7109 32.8628L57.2344 34.2695L56.2894 33.9555L54.6429 35.265L50.9854 36.5521L49.4834 36.8199L48.0531 35.7796L47.2787 37.137L46.4794 37.3557L46.6558 45.3266L46.0023 46.0786L42.8562 47.6559L42.1311 49.7161L41.2109 50.5409L41.2851 52.3824L42.4968 52.6235L43.4674 54.0763L42.7422 56.1365L42.574 57.6148L42.769 58.8501L42.3092 59.2626L42.7229 61.2972L42.3373 63.5505L44.5925 65.511L46.4097 65.8729L47.6463 67.2528L49.4635 67.6148L50.9667 68.9218L52.0831 70.9078L53.9258 72.4085L55.0646 72.3836L56.2526 73.0608L57.5864 74.2712L58.1695 76.403L58.3178 80.0855L58.9252 81.7812L59.8703 82.0952L60.0889 82.8944L59.2909 84.688L59.8995 87.9586L60.8222 90.2835L61.6707 90.7676L64.3607 91.1769L65.0646 92.7025L65.0409 93.1386L73.9083 92.5736L84.5176 92.1039L93.4815 91.3694L93.1644 89.1647L93.2853 88.5591L93.284 86.9843L92.6293 86.1613L92.5072 85.1926L91.7796 84.103L91.997 83.3274L91.5105 81.0261L91.6787 79.5478L92.1864 78.2633L92.1851 76.6884L92.9832 74.8948L92.5458 73.2963L92.4474 71.8909L93.0996 69.564L93.8497 68.6427L94.3338 67.7942L93.7027 66.5358L94.0391 63.5798L94.958 61.1801L95.2227 59.5323L93.9619 58.5885L92.7034 59.2196L92.1465 59.8014L91.1547 61.9345L89.8714 63.0016L88.7089 63.4633L89.1911 61.0399L90.1829 58.9068L90.4003 58.1312L92.0232 57.2578L92.1914 55.7795L90.9304 54.8357L90.9784 53.9635L91.4133 52.4123L89.2329 52.2934L89.8371 50.8393L89.6409 48.0291L88.5501 47.1819L86.9023 46.9171L86.3921 45.0519L85.713 44.665L84.2347 44.4968L82.2474 44.0383L81.3516 44.4271L79.5344 44.0651L76.6257 42.8559L67.0295 40.7565L65.8402 38.5045L64.289 38.0696L64.1432 37.537L64.1426 37.5339Z"/><path fill="#47576B" stroke="#fff" stroke-linejoin="round" stroke-width="1.168" d="M169.886 106.829L168.693 99.8524L166.842 88.903L162.144 91.6204L159.141 93.7311L156.333 97.0771L154.372 97.7573L152.627 97.662L150.641 98.7784L149.479 99.24L148.123 100.041L146.935 99.3634L144.827 99.5104L144.004 100.165L143.519 99.4387L141.943 97.8651L140.464 97.6969L139.543 96.9469L137.968 96.9481L129.586 98.2395L124.475 98.9223L125.134 104.47L126.109 112.222L127.233 122.082L128.503 134.05L129.592 133.322L130.514 134.072L132.379 133.562L133.906 134.433L135.507 137.145L136.719 137.387L137.955 137.192L139.166 137.433L140.936 138.667L141.542 138.788L142.655 137.624L144.472 137.986L145.224 138.639L147.089 138.129L147.864 136.772L149.389 136.068L150.408 138.223L151.693 138.731L153.196 140.038L154.068 140.086L155.861 139.309L156.15 137.225L156.949 137.007L156.559 134.536L157.598 131.531L158.058 131.118L159.924 132.183L160.553 131.868L160.478 128.451L160.986 127.167L162.052 126.875L162.1 126.003L162.753 125.251L163.698 125.565L165.321 124.692L166.241 123.867L166.918 122.679L168.492 121.103L168.442 118.825L169.071 116.935L168.997 115.093L169.406 112.403L169.817 111.288L169.259 110.295L169.573 109.35L168.336 107.97L169.886 106.83V106.829Z"/><path fill="#47576B" stroke="#fff" stroke-linejoin="round" stroke-width="1.168" d="M153.197 140.04L151.693 138.733L150.409 138.225L149.39 136.07L147.864 136.774L147.09 138.131L145.224 138.641L144.472 137.988L142.655 137.626L141.542 138.79L140.936 138.669L139.167 137.435L137.955 137.193L136.72 137.388L135.508 137.147L133.906 134.435L132.379 133.564L130.514 134.074L129.593 133.324L128.503 134.052L128.116 134.731L128.602 135.457L128.19 136.572L129.233 136.717L129.064 138.195L127.199 138.705L125.383 139.918L124.535 139.434L122.597 139.678L122.573 140.115L123.18 141.81L122.043 143.41L121.22 144.065L120.955 145.713L119.865 146.44L119.356 146.15L118.679 147.338L118.656 149.349L118.27 150.027L117.374 150.416L115.726 150.151L114.708 149.57L114.586 148.601L113.157 149.136L112.116 150.566L112.311 151.802L110.01 152.288L109.112 151.102L106.836 152.727L106.498 154.108L102.741 152.416L101.483 153.047L100.999 153.895L100.15 153.411L98.8178 153.776L97.7999 153.195L97.7283 154.503L97.3414 155.182L96.2992 155.037L96.1783 155.643L95.2108 157.34L96.1814 158.793L95.7946 159.472L93.9294 159.982L92.2337 160.589L91.8225 161.704L91.9446 162.673L92.8423 163.859L92.3346 165.144L90.6868 164.878L87.6087 163.573L86.1067 163.841L84.9455 165.877L85.5765 167.135L85.3112 168.783L85.579 170.285L84.9498 172.175L84.4901 172.588L83.3021 171.911L82.6729 173.801L92.0735 173.09L97.7912 172.528L97.4012 170.057L99.4122 170.08L99.9211 170.37L108.013 169.587L114.699 168.903L119.085 168.706L126.111 168.215L129.284 167.776L134.735 167.287L144.402 166.504L145.128 166.018L146.678 164.878L147.647 164.756L149.366 163.713L150.528 163.251L150.94 162.136L152.926 161.02L153.07 159.977L154.353 158.91L154.498 157.868L155.151 157.116L157.888 155.078L161.615 150.908L159.87 150.812L158.949 150.062L157.761 149.385L157.276 148.659L156.354 147.909L155.966 147.013L155.214 146.359L153.346 143.72L153.684 142.339L153.198 140.037L153.197 140.04Z"/><path fill="#47576B" stroke="#fff" stroke-linejoin="round" stroke-width="1.168" d="M124.478 98.9235L124.428 98.2208L119.147 98.807L109.721 99.9539L103.834 100.419L102.188 101.729L99.5961 102.724L98.215 102.386L97.1241 101.539L98.299 115.25L99.0086 123.076L99.8415 133.444L99.0915 134.366L99.2865 135.601L98.633 136.353L99.7493 138.339L100.162 138.799L100.187 139.938L100.891 141.463L100.479 142.578L99.9225 143.16L99.4148 144.445L99.6571 144.808L98.6405 145.802L98.7862 146.335L97.9153 147.862L96.8494 148.153L96.3417 149.438L97.0936 150.091L96.1735 150.916L95.9561 151.692L96.2981 155.035L97.3403 155.18L97.7272 154.502L97.7988 153.193L98.8167 153.774L100.149 153.409L100.998 153.893L101.482 153.045L102.74 152.414L106.497 154.107L106.835 152.725L109.111 151.1L110.009 152.286L112.31 151.8L112.115 150.564L113.156 149.134L114.585 148.599L114.707 149.568L115.725 150.149L117.373 150.414L118.268 150.025L118.655 149.347L118.678 147.336L119.355 146.148L119.864 146.438L120.954 145.711L121.219 144.063L122.042 143.408L123.179 141.808L122.572 140.113L122.596 139.677L124.534 139.432L125.382 139.916L127.198 138.704L129.063 138.193L129.232 136.715L128.189 136.57L128.6 135.455L128.115 134.729L128.502 134.05L127.232 122.082L126.109 112.222L125.133 104.47L124.474 98.9223L124.478 98.9235Z"/><path fill="#47576B" stroke="#fff" stroke-linejoin="round" stroke-width="1.168" d="M93.4784 91.3669L84.5145 92.1014L73.9052 92.5711L65.0378 93.1361L64.8441 93.4756L66.9534 94.9035L67.5608 96.5992L70.0092 98.2202L70.4708 99.3827L69.9643 102.242L68.9476 103.236L68.6585 105.32L67.7384 106.145L66.1399 106.582L65.1232 107.577L62.2164 107.942L61.5629 108.694L61.2975 110.342L61.4196 111.311L62.4375 111.891L62.8263 112.787L62.9004 114.629L61.5934 116.132L61.4015 118.046L60.8446 118.628L58.7856 119.478L58.9819 122.288L58.4492 122.434L57.8686 123.452L57.6768 125.366L58.0904 127.401L58.4791 128.297L58.5041 129.436L59.6204 131.422L62.3846 133.672L63.1122 134.762L65.5605 136.383L66.604 138.102L67.0668 140.84L67.4556 141.736L68.3041 142.22L69.8534 141.08L72.5191 141.925L73.1738 142.748L72.4967 143.936L72.5951 145.341L72.0874 146.626L70.8545 149.971L71.4856 151.229L74.056 153.819L75.1711 154.231L76.1161 154.545L77.0375 155.295L78.3221 155.802L79.2927 157.255L80.2377 157.569L80.748 159.434L81.6213 161.057L81.4768 162.099L80.9691 163.384L83.3221 166.75L84.0485 166.264L84.9698 167.015L85.5754 167.135L84.9443 165.877L86.1055 163.841L87.6075 163.573L90.6856 164.878L92.3334 165.144L92.8411 163.859L91.9434 162.673L91.8213 161.704L92.2325 160.589L93.9282 159.982L95.7934 159.472L96.1802 158.793L95.2097 157.34L96.1771 155.643L96.298 155.037L95.956 151.694L96.1734 150.918L97.0935 150.093L96.3416 149.44L96.8493 148.155L97.9152 147.864L98.7862 146.337L98.6404 145.804L99.657 144.81L99.4147 144.447L99.9224 143.162L100.479 142.58L100.891 141.465L100.187 139.94L100.162 138.801L99.7493 138.341L98.6329 136.355L99.2864 135.603L99.0914 134.368L99.8415 133.446L99.0086 123.077L98.299 115.252L97.124 101.541L96.4693 100.718L95.6196 98.6588L95.1093 96.7936L94.2609 96.3096L93.4111 94.2506L93.4815 91.3675L93.4784 91.3669Z"/><path fill="#47576B" stroke="#fff" stroke-linejoin="round" stroke-width="1.168" d="M58.449 122.435L57.2853 121.321L55.6855 120.184L55.2968 119.288L53.092 119.605L41.2431 120.27L36.4219 120.444L31.7702 120.714L27.0455 120.718L22.3209 120.723L13.6709 120.512L14.3985 121.602L15.0545 123.999L17.3346 127.099L17.2866 127.971L18.3046 128.552L19.6384 129.762L20.8264 130.439L21.5528 129.954L22.9831 130.994L22.742 132.206L22.1365 132.085L21.2892 133.176L20.66 135.066L22.6486 137.099L23.4983 139.158L25.7043 140.417L25.7852 150.132L25.8401 157.134L26.1416 169.224L26.1235 175.96L35.1367 175.928L44.077 175.63L55.9945 175.232L65.0313 174.763L74.7709 174.246L75.8144 175.965L75.8393 177.104L75.2587 178.122L74.3628 178.511L73.1287 180.281L72.7176 181.396L79.84 180.736L80.4443 179.282L81.0013 178.7L79.9341 177.416L81.1695 177.221L80.7807 176.326L81.7008 175.501L81.2635 173.902L81.9662 173.853L82.669 173.804L83.2982 171.914L84.4862 172.591L84.9459 172.178L85.5751 170.288L85.3072 168.786L85.5726 167.139L84.9671 167.018L84.0457 166.268L83.3193 166.753L80.9663 163.387L81.4741 162.102L81.6186 161.06L80.7452 159.437L80.235 157.572L79.2899 157.258L78.3194 155.805L77.0348 155.298L76.1134 154.548L75.1683 154.234L74.0532 153.822L71.4828 151.232L70.8518 149.974L72.0846 146.629L72.5924 145.344L72.4939 143.939L73.1711 142.751L72.5164 141.928L69.8507 141.083L68.3013 142.223L67.4528 141.739L67.0641 140.843L66.6012 138.105L65.5577 136.386L63.1094 134.765L62.3818 133.675L59.6177 131.425L58.5013 129.439L58.4764 128.3L58.0877 127.404L57.674 125.369L57.8659 123.455L58.4465 122.437L58.449 122.435Z"/><path fill="#47576B" stroke="#fff" stroke-linejoin="round" stroke-width="1.168" d="M65.0401 93.1361L65.0638 92.7L64.3598 91.1744L61.6698 90.7651L60.8213 90.281L59.8987 87.9561L59.29 84.6855L60.0881 82.8919L59.8694 82.0927L58.9244 81.7787L58.3169 80.0829L51.9209 80.258L42.2785 80.6056L32.6361 80.9532L22.9208 81.0342L13.4716 81.0423L6.90544 81.1208L5.59721 81.0492L6.03453 82.6477L5.74546 84.7316L6.61764 84.7795L6.88551 86.2815L6.3049 87.2995L6.42701 88.2682L5.72554 89.8923L4.95117 91.2497L6.18778 92.6296L6.52855 94.3983L7.4736 94.7122L7.37827 96.4566L7.93647 97.4496L7.86482 98.7578L8.59245 99.8474L8.81112 100.647L9.8054 101.663L9.97671 103.335L10.6315 104.158L10.3424 106.242L10.4408 107.647L12.0406 108.785L11.7752 110.432L12.5508 110.65L12.116 112.201L12.5284 112.661L12.5789 114.938L12.8212 115.302L12.9445 117.845L12.6306 118.79L13.7214 119.637L13.6734 120.51L22.3234 120.72L27.048 120.716L31.7727 120.711L36.4244 120.441L41.2456 120.267L53.0946 119.603L55.2993 119.285L55.688 120.181L57.2878 121.319L58.4515 122.432L58.9841 122.286L58.7879 119.476L60.8469 118.626L61.4038 118.044L61.5957 116.13L62.9027 114.627L62.8285 112.785L62.4398 111.889L61.4218 111.309L61.2998 110.34L61.5651 108.692L62.2186 107.94L65.1254 107.575L66.1421 106.581L67.7407 106.143L68.6608 105.318L68.9498 103.235L69.9666 102.24L70.473 99.3808L70.0114 98.2183L67.5631 96.5974L66.9557 94.9016L64.8463 93.4738L65.0401 93.1342V93.1361Z"/><path fill="#47576B" stroke="#fff" stroke-linejoin="round" stroke-width="1.168" d="M70.6402 17.8498L68.4598 17.7308L67.7334 18.2161L67.0544 17.8292L65.9872 16.5459L65.1151 16.4979L61.8444 17.1066L59.3974 17.0605L58.9601 15.4619L58.0879 15.414L56.7317 16.2145L54.9886 17.694L53.5595 18.2285L52.2513 18.1569L51.0632 17.4797L50.4322 16.2213L48.615 15.8594L47.911 14.3337L46.8688 14.1892L45.4397 14.7237L45.5618 15.693L44.7625 15.9117L43.258 13.0298L41.6831 13.0311L42.1909 11.7465L40.0341 11.1914L39.1856 10.7074L36.7386 10.6613L34.8734 11.1715L34.4865 11.8505L32.1853 12.3371L31.0452 10.7878L27.8226 10.5242L26.9978 9.6041L25.4958 9.87198L24.5508 9.558L23.387 8.44475L23.2886 7.03932L22.3404 3.57559L22.2663 1.73408L20.9088 0.959722L19.2611 0.694336L19.3383 5.68435L19.1446 6.02387L13.1117 5.95659L0.60863 5.79774L0.584961 6.23382L1.7518 10.4968L1.22039 12.2175L1.48828 13.7195L1.29765 17.2087L2.61025 22.005L3.29055 23.9668L3.84996 26.5347L3.683 29.5878L3.78145 30.9933L3.8319 33.2709L4.17267 35.0395L4.17516 38.1892L4.49039 38.8184L4.80748 41.0231L5.94752 42.5725L6.31321 45.4793L6.36366 47.7569L5.44477 50.1566L3.43507 51.709L3.31422 52.3145L4.91587 55.027L6.12756 55.2681L7.19472 56.5514L7.10626 66.1701L7.13554 72.0335L6.90129 81.1196L13.4674 81.0411L22.9167 81.033L32.632 80.952L42.2744 80.6044L51.9167 80.2568L58.3128 80.0817L58.1646 76.3993L57.5814 74.2675L56.2476 73.0571L55.0596 72.3799L53.9209 72.4048L52.0781 70.9041L50.9617 68.918L49.4585 67.611L47.6413 67.2491L46.4047 65.8692L44.5875 65.5073L42.3323 63.5468L42.7179 61.2935L42.3042 59.2588L42.764 58.8464L42.569 57.6111L42.7372 56.1328L43.4624 54.0726L42.4918 52.6198L41.2801 52.3787L41.2059 50.5372L42.1261 49.7124L42.8512 47.6522L45.9973 46.0748L46.6507 45.3229L46.4744 37.352L47.2737 37.1333L48.0481 35.7758L48.0717 35.3398L50.8078 33.302L53.3982 30.7316L57.8026 25.3734L59.9089 23.6515L62.088 22.1956L66.1087 20.6656L70.6371 17.851L70.6402 17.8498Z"/></g><defs><clipPath id="clip0_4200_625"><rect width="171" height="182" fill="#fff" transform="translate(0 -0.003479)"/></clipPath></defs></svg>