<svg xmlns="http://www.w3.org/2000/svg" width="144" height="178" fill="none" viewBox="0 0 144 178"><g clip-path="url(#clip0_4200_678)"><path fill="#56BB6C" stroke="#fff" stroke-linejoin="round" stroke-width="1.168" d="M134.289 40.914L134.24 40.2113L133.052 39.5341L132.423 39.8494L132.231 41.7637L132.643 42.2235L134.29 40.914H134.289ZM131.97 20.929L132.018 20.0569L130.293 14.8008L126.844 4.28878L124.661 2.59491L121.923 1.48291L121.051 1.43494L120.47 2.45287L119.137 2.81731L118.46 4.00532L117.394 4.29688L116.378 5.29114L114.996 4.95287L114.584 4.49311L114.074 2.62793L112.499 2.62918L112.039 3.04158L108.343 14.6501L108.83 18.5262L107.983 19.617L107.767 21.9675L108.252 22.6939L108.108 23.7361L108.23 24.7049L109.055 25.625L108.063 27.7581L108.378 28.3873L106.974 30.0599L106.467 31.3445L106.395 32.6528L105.791 34.1068L106.082 35.1727L105.502 36.1906L104.774 35.101L103.685 35.8287L106.551 44.2095L109.782 53.9223L111.288 58.3791L111.774 60.6803L113.787 62.2776L113.909 63.2464L115 64.0936L115.895 63.7049L116.185 61.621L116.353 60.1427L117.369 59.1484L117.125 57.2104L118.481 56.4099L117.535 54.5222L118.406 52.9953L119.35 51.7344L120.95 52.872L121.652 52.8228L122.305 50.496L122.958 49.744L124.073 50.1552L124.072 48.5803L124.532 48.1679L125.889 48.9423L126.446 48.3604L126.784 46.9793L126.759 45.8405L126.976 43.49L127.29 42.545L126.635 41.722L127.748 40.5583L129.058 42.2048L130.269 42.4459L131.335 42.1543L130.535 40.7981L133.004 38.8333L134.506 38.5654L134.968 39.7279L135.767 39.5092L136.687 38.6844L136.832 37.6422L136.346 36.9158L136.903 36.3339L138.212 36.4056L139.107 36.0168L139.009 34.6114L140.487 34.7796L140.971 33.9311L141.941 33.809L143.416 30.8274L142.349 29.5441L140.142 26.7115L139.536 26.5906L138.616 27.4154L137.016 26.2779L137.015 24.703L135.948 23.4197L136.505 22.8378L135.946 21.8448L133.985 22.5251L131.925 21.7999L131.973 20.9278L131.97 20.929Z"/><path fill="#56BB6C" stroke="#fff" stroke-linejoin="round" stroke-width="1.168" d="M82.4203 96.7761L81.5955 95.8559L80.1901 95.9544L79.0021 95.2772L78.1043 94.091L77.5213 91.9592L77.206 91.33L76.0909 90.9189L74.0544 89.7576L61.7488 92.409L56.347 93.6008L46.9713 95.4504L38.9287 96.9355L30.3535 98.5665L29.7685 94.8598L28.6789 95.5874L24.1031 99.2742L22.8447 99.9052L24.6956 110.855L25.8886 117.831L28.0073 130.283L38.6913 128.505L49.3006 126.46L58.6763 124.611L70.4493 122.106L76.3843 120.769L76.8684 119.92L77.8851 118.926L79.896 118.948L80.0169 118.343L82.3661 116.984L82.5106 115.942L83.1641 115.19L84.8344 113.444L85.6816 112.353L81.4634 109.498L80.9289 108.069L79.9596 108.191L79.3036 105.793L80.1265 105.138L80.2947 103.66L79.3004 102.643L80.1477 101.552L81.1395 99.4193L81.2111 98.1111L82.4215 96.7773L82.4203 96.7761Z"/><path fill="#56BB6C" stroke="#fff" stroke-linejoin="round" stroke-width="1.168" d="M90.9054 104.769L89.936 104.891L89.695 106.103L90.9303 105.908L90.9054 104.769ZM107.443 93.5116L106.378 93.8032L104.393 96.4944L102.698 97.1018L99.3305 97.8799L98.4833 98.9708L95.8425 99.2636L95.5522 99.7725L93.6645 100.719L93.3506 101.664L92.0922 102.295L91.2705 104.525L91.9252 105.348L93.4016 103.941L94.6862 104.449L95.9695 103.381L97.7618 102.605L99.0452 101.537L101.806 100.638L103.816 99.086L105.051 98.891L106.698 97.5815L110.91 94.1371L110.498 93.6774L109.287 95.0111L108.536 94.3576L107.688 95.4485L106.622 95.74L106.115 97.0246L104.709 97.123L105.193 96.2745L106.089 95.8858L105.967 94.9171L106.451 94.0686L107.444 93.5104L107.443 93.5116ZM71.0618 48.4769L69.3904 48.6482L67.2841 50.3701L66.1708 51.5338L62.8554 56.1644L62.3477 57.4489L62.6629 58.0781L60.485 61.1083L59.2988 62.006L57.9918 63.5092L58.9132 64.2593L59.5424 63.9441L60.318 64.1615L60.6588 65.9301L59.5692 66.6577L61.1709 69.3702L61.1958 70.509L60.8089 71.188L59.2104 71.6253L56.9832 73.9534L56.7658 74.729L54.4166 76.0877L50.7099 76.6727L49.0871 77.5461L48.2149 77.4981L46.7609 76.8938L43.175 76.8726L42.0126 77.3343L40.4377 77.3355L37.5795 78.4039L34.165 80.0542L34.5549 82.5249L36.1298 82.5236L36.2283 83.9291L37.1017 85.5519L36.8606 86.7636L35.9404 87.5884L35.0459 89.5514L33.2062 91.2004L32.2624 92.4613L29.7705 94.8622L30.3555 98.5689L38.9307 96.938L46.9733 95.4528L56.3491 93.6032L61.7509 92.4115L74.0565 89.7601L76.0929 90.9213L77.2081 91.3325L77.5233 91.9617L78.1064 94.0935L79.0041 95.2796L80.1921 95.9568L81.5975 95.8584L82.4224 96.7785L91.3651 99.6299L90.7821 97.498L91.2181 97.5217L91.6555 99.1203L91.7551 102.101L92.8447 101.373L93.1587 100.428L94.0296 98.901L92.8659 97.7877L94.9958 95.6297L94.0745 94.8797L92.2728 84.6324L91.7639 84.3421L91.9252 74.9913L89.4445 64.3571L88.7898 63.5342L87.4815 63.4625L87.6497 61.9842L86.4355 58.5934L86.0231 58.1336L86.1422 55.9532L86.4325 55.4442L85.9951 53.8457L85.9939 52.2708L85.0962 51.0847L84.538 50.0916L84.5604 48.0807L83.9786 47.5237L83.6614 45.319L77.6298 46.8266L71.0655 48.48L71.0618 48.4769Z"/><path fill="#56BB6C" stroke="#fff" stroke-linejoin="round" stroke-width="1.168" d="M83.1615 115.191L82.4364 117.251L80.8135 118.125L79.7003 119.288L79.3383 121.106L79.7283 123.576L81.9343 124.835L83.0494 125.246L84.4797 126.286L85.6422 125.825L87.3629 126.356L87.1959 129.409L88.0917 129.021L89.0592 127.324L89.4449 125.07L90.0254 124.052L90.5569 122.332L91.4022 119.666L92.4189 118.672L92.9267 117.387L92.6114 116.758L92.7796 115.28L92.5597 112.905L92.9958 112.929L92.7983 108.543L92.0707 107.454L90.2292 107.528L89.2112 106.947L89.5732 105.13L90.1301 104.548L90.5662 104.572L91.1468 103.554L91.5804 100.427L91.3617 99.6274L82.419 96.7761L81.2085 98.1098L81.1369 99.4181L80.1451 101.551L79.2979 102.642L80.2921 103.659L80.1239 105.137L79.301 105.792L79.9569 108.19L80.9263 108.067L81.4608 109.497L85.679 112.352L84.8317 113.442L83.1615 115.189V115.191Z"/><path fill="#56BB6C" stroke="#fff" stroke-linejoin="round" stroke-width="1.168" d="M76.3834 120.773L70.4483 122.11L58.6754 124.615L49.2996 126.464L38.6904 128.509L39.8105 135.219L42.594 132.309L43.4649 130.782L44.58 131.193L45.2572 130.005L46.0552 128.212L46.5405 128.938L48.3577 129.3L49.4236 129.009L49.6647 127.797L51.0938 127.262L51.6744 126.245L52.4737 126.026L54.3401 127.091L55.236 126.702L55.867 127.96L56.5461 128.347L57.3709 129.267L57.493 130.236L59.504 130.258L60.5219 130.839L60.5231 132.414L61.5411 132.994L63.116 132.993L63.6013 133.72L64.8858 134.227L65.6359 133.306L67.3329 134.273L66.2925 135.704L66.3909 137.109L65.8832 138.394L65.254 138.709L64.7226 140.43L65.0871 141.762L65.6926 141.883L67.2662 140.307L68.0667 141.663L68.8187 142.317L70.806 142.775L72.3079 142.507L74.2709 143.402L75.4589 144.079L75.434 142.94L74.6092 142.02L73.9781 140.762L74.0261 139.89L72.45 138.316L71.7211 135.651L71.4059 135.022L71.8644 133.035L71.4756 132.139L72.202 131.654L71.1093 129.232L71.5205 128.117L70.9386 127.56L73.0941 126.54L74.3282 124.771L74.8864 125.764L73.676 127.097L73.0237 129.424L74.6715 129.69L74.7699 131.095L74.0199 132.016L75.0378 132.597L74.6995 133.978L73.6573 133.834L73.5856 135.142L74.7244 135.117L75.7424 135.698L75.0409 137.322L75.163 138.29L74.5338 138.606L75.9405 140.082L78.3402 141.001L79.4298 140.273L80.1817 140.927L79.4317 141.848L80.7399 141.92L80.4508 144.004L83.0916 143.711L83.1153 143.275L85.6072 142.449L85.9455 141.068L86.2121 140.995L86.4768 139.347L87.3727 138.958L87.6138 137.746L87.2014 137.287L87.4424 136.075L81.0713 137.389L79.1756 130.461L76.6712 121.838L76.3797 120.772L76.3834 120.773Z"/><path fill="#56BB6C" stroke="#fff" stroke-linejoin="round" stroke-width="1.168" d="M66.2914 135.706L67.3318 134.275L65.6348 133.308L64.8848 134.229L65.6604 134.447L66.2422 135.004L66.2914 135.706V135.706Z"/><path fill="#56BB6C" stroke="#fff" stroke-linejoin="round" stroke-width="1.168" d="M79.8906 118.948L77.8796 118.925L76.8629 119.919L76.3789 120.768L76.6705 121.834L79.1748 130.457L81.0705 137.385L87.4417 136.071L87.7083 135.998L87.8049 135.828L87.3432 134.666L86.6642 134.279L87.0025 132.898L86.468 131.469L85.4992 131.591L83.5599 130.26L83.5107 129.558L82.4199 128.71L81.8368 126.578L81.2057 125.32L79.1935 123.723L79.338 122.681L78.5132 121.76L79.8918 118.949L79.8906 118.948Z"/><path fill="#56BB6C" stroke="#fff" stroke-linejoin="round" stroke-width="1.168" d="M38.6875 128.51L28.0035 130.288L25.8848 117.837L24.3354 118.977L25.572 120.357L25.2581 121.302L25.8162 122.295L25.4051 123.41L24.9958 126.1L25.0699 127.942L24.4407 129.832L24.4912 132.109L22.9175 133.685L22.2404 134.873L21.3203 135.698L19.6974 136.572L18.7524 136.258L18.0988 137.01L18.0509 137.882L16.985 138.173L16.4772 139.458L16.5526 142.874L15.9234 143.189L14.057 142.125L13.5972 142.537L12.5581 145.542L12.9481 148.013L12.1488 148.232L11.8598 150.316L10.0675 151.092L9.19531 151.045L9.68186 153.346L9.34357 154.727L11.2112 157.366L11.9632 158.02L12.3519 158.916L13.2733 159.666L13.7586 160.392L14.9466 161.069L15.868 161.819L17.6123 161.915L17.4678 162.957L18.1954 164.047L19.6257 165.087L20.0618 165.111L21.6859 165.812L22.6553 165.69L24.5192 163.605L25.9496 164.645L26.9426 164.087L28.9043 163.407L29.5578 162.655L29.7023 161.613L30.914 161.854L32.8272 160.471L33.7722 160.785L35.4188 159.476L35.2001 158.677L35.8536 157.925L35.0288 157.004L35.5602 155.284L37.302 152.229L37.7842 149.806L38.9217 148.206L38.8968 147.067L39.574 145.879L39.693 143.699L40.638 144.013L41.3657 145.103L43.7161 145.319L44.4905 143.961L44.7559 142.314L45.8915 139.139L47.1761 139.647L48.1679 137.514L48.9672 137.295L50.9993 133.731L50.7315 132.229L51.1183 131.55L51.2136 129.806L57.0796 132.927L57.4888 130.237L57.3667 129.268L56.5419 128.348L55.8629 127.961L55.2318 126.703L54.3359 127.092L52.4695 126.027L51.6702 126.246L51.0896 127.264L49.6606 127.798L49.4195 129.01L48.3536 129.301L46.5363 128.94L46.0511 128.213L45.253 130.007L44.5758 131.195L43.4607 130.784L42.5898 132.31L39.8063 135.22L38.6862 128.51H38.6875Z"/><path fill="#56BB6C" stroke="#fff" stroke-linejoin="round" stroke-width="1.168" d="M83.0868 143.711L82.895 145.625L81.9748 146.45L82.1935 147.249L81.1289 149.116L81.7107 149.673L81.0815 153.138L81.3002 153.937L82.1736 155.56L82.2676 152.241L82.7753 150.956L84.9265 145.212L85.58 144.46L85.2884 143.394L85.6024 142.449L83.1105 143.275L83.0868 143.711V143.711ZM57.4889 130.238L57.0796 132.928L51.2137 129.807L51.1183 131.551L50.7315 132.23L50.9994 133.732L48.9672 137.295L48.1679 137.514L47.1762 139.647L45.8916 139.139L44.7559 142.314L44.4905 143.962L43.7162 145.319L41.3657 145.103L40.6381 144.014L39.693 143.7L39.574 145.88L38.8969 147.068L38.9218 148.207L37.7842 149.807L37.302 152.23L35.5602 155.284L35.0288 157.005L35.8536 157.925L35.2001 158.677L35.4188 159.476L33.7723 160.786L32.8272 160.472L30.9141 161.854L29.7024 161.613L29.5578 162.655L28.9043 163.407L26.9426 164.088L25.9496 164.646L24.5192 163.606L22.6553 165.691L21.686 165.813L20.0619 165.111L19.6258 165.088L18.1954 164.047L17.4678 162.958L17.6123 161.915L13.8851 166.086L11.149 168.124L10.4955 168.876L10.351 169.918L9.06763 170.985L8.92311 172.027L6.93707 173.144L6.52589 174.259L5.36344 174.721L3.64403 175.764L2.67531 175.886L1.12598 177.026L10.1136 175.856L19.6345 174.539L20.0943 174.127L22.7351 173.834L23.0746 174.028L27.5562 173.66L33.3704 172.928L39.7173 172.051L46.1614 171.003L55.0032 169.299L63.1455 167.645L69.7826 166.258L79.5209 164.166L83.1547 163.315L83.3242 163.412L83.8568 163.266L83.4432 161.231L83.7098 161.158L84.6561 163.046L85.0922 163.07L83.0787 159.898L82.5442 158.468L81.0422 158.736L79.3945 158.471L79.1534 159.683L77.4091 159.587L76.0753 158.377L75.033 158.232L74.1354 157.046L72.0988 155.885L75.0549 156.221L75.3464 157.287L77.2365 157.917L77.7218 158.643L79.078 157.842L79.126 156.97L78.4712 156.147L76.5811 155.518L77.3312 154.597L76.7238 152.901L77.596 152.949L78.346 152.028L76.9885 151.253L75.8248 150.14L76.6241 149.921L76.6229 148.346L77.1306 147.062L76.839 145.996L73.5672 145.03L73.518 144.327L72.4272 143.48L69.6169 143.676L68.6719 143.362L67.6776 142.345L67.5555 141.376L65.3035 142.565L64.8674 142.542L64.1634 141.016L64.6699 138.156L65.5421 138.204L65.6866 137.162L66.3158 136.847L66.0716 134.909L65.6592 134.449L64.8836 134.232L63.599 133.724L63.1137 132.998L61.5388 132.999L60.5209 132.418L60.5196 130.843L59.5017 130.263L57.4907 130.24L57.4889 130.238Z"/><path fill="#56BB6C" stroke="#fff" stroke-linejoin="round" stroke-width="1.168" d="M99.7203 73.1404L98.4108 71.4939L98.6762 69.8461L98.3578 66.0666L98.4787 65.461L97.6763 62.5299L98.1111 60.9787L97.9161 59.7434L98.4967 58.7254L98.3983 57.32L98.9521 53.5884L98.4419 51.7232L98.7559 50.7782L100.014 50.1471L101.321 48.6439L101.974 46.3171L100.664 44.6705L101.316 42.3437L100.879 40.7452L93.4183 42.7867L83.6562 45.3147L83.9734 47.5194L84.5552 48.0763L84.5328 50.0873L85.091 51.0803L85.9887 52.2664L85.9899 53.8413L86.4272 55.4399L86.137 55.9488L86.018 58.1292L86.4304 58.589L87.6446 61.9798L87.4763 63.4582L88.7846 63.5298L89.4393 64.3528L91.92 74.9869L99.7203 73.1386V73.1404Z"/><path fill="#56BB6C" stroke="#fff" stroke-linejoin="round" stroke-width="1.168" d="M117.151 85.5563L116.64 83.6911L115.768 83.6431L116.424 86.0409L117.151 85.5563ZM115.259 83.3534L113.901 82.5791L113.101 81.2229L112.833 79.7209L108.739 80.9843L110.489 87.3791L110.854 88.7116L110.685 90.19L113.035 88.8312L114.101 88.5397L114.269 87.0614L113.734 85.6323L113.95 83.2818L115.259 83.3534Z"/><path fill="#56BB6C" stroke="#fff" stroke-linejoin="round" stroke-width="1.168" d="M115.001 64.0886L113.911 63.2414L113.788 62.2726L111.776 60.6753L111.29 58.3741L109.783 53.9173L106.553 44.2045L103.686 35.8237L103.372 36.7687L101.894 36.6005L101.144 37.5219L100.88 40.7445L101.318 42.3431L100.666 44.6699L101.975 46.3164L101.323 48.6432L100.016 50.1465L98.7574 50.7775L98.4434 51.7226L98.9536 53.5878L98.3998 57.3194L98.4982 58.7248L97.9176 59.7427L98.1126 60.9781L97.6777 62.5293L98.4801 65.4604L98.3593 66.0659L98.6776 69.8455L98.4122 71.4933L99.7217 73.1398L111.06 70.6099L114.134 67.191L115.2 66.8995L115.391 64.9851L115.003 64.0892L115.001 64.0886Z"/><path fill="#56BB6C" stroke="#fff" stroke-linejoin="round" stroke-width="1.168" d="M108.741 80.9837L108.668 80.717L99.267 83.0027L92.2666 84.6324L94.0683 94.8797L94.9896 95.6298L92.8597 97.7878L94.0234 98.901L94.7498 98.4157L98.236 95.4566L101.771 93.2002L102.74 93.0781L103.297 92.4962L104.339 92.6408L105.066 92.1555L106.398 91.791L107.318 90.9662L108.19 91.0142L110.176 89.8978L110.685 90.1881L110.854 88.7098L110.489 87.3772L108.739 80.9824L108.741 80.9837Z"/><path fill="#56BB6C" stroke="#fff" stroke-linejoin="round" stroke-width="1.168" d="M122.528 84.7963L121.898 85.1115L120.931 86.8085L123.692 85.9095L122.528 84.7963H122.528ZM115.195 66.8976L114.129 67.1892L111.056 70.608L99.7174 73.1379L91.9172 74.9863L91.7559 84.3371L92.2648 84.6274L99.2652 82.9977L108.666 80.712L108.739 80.9787L112.832 79.7153L113.1 81.2173L113.901 82.5735L115.258 83.3478L115.767 83.6381L116.639 83.6861L117.149 85.5513L117.852 85.5021L119.038 84.6044L118.82 83.8051L120.006 82.9074L120.95 81.6465L121.679 84.311L122.962 83.2438L123.542 82.2259L125.335 81.449L127.587 80.2598L128.023 80.2834L127.367 77.8856L126.496 79.4125L124.68 80.6254L122.936 80.5301L121.821 80.119L121.044 78.3267L120.075 78.4488L119.734 76.6802L117.819 74.9134L115.88 75.1576L115.105 74.9402L115.273 73.4619L116.313 72.0315L115.998 71.4023L117.645 70.0928L117.353 69.0269L116.53 69.6817L115.778 69.0282L115.195 66.8964V66.8976Z"/></g><defs><clipPath id="clip0_4200_678"><rect width="144" height="178" fill="#fff"/></clipPath></defs></svg>