<svg xmlns="http://www.w3.org/2000/svg" width="347" height="199" fill="none" viewBox="0 0 347 199"><g clip-path="url(#clip0_4200_519)"><path fill="#3C9980" stroke="#fff" stroke-linejoin="round" stroke-width="1.168" d="M258.129 41.8803L257.403 42.3656L247.736 43.1493L242.285 43.6383L239.112 44.0769L232.086 44.5678L227.7 44.7653L221.014 45.4493L212.922 46.2318L212.413 45.9415L210.402 45.9191L210.792 48.3898L205.075 48.9517L195.674 49.6625L194.971 49.7117L194.268 49.7609L194.706 51.3595L193.786 52.1843L194.174 53.0801L192.939 53.2751L194.006 54.5584L193.449 55.1403L192.845 56.5943L193.573 57.6839L192.604 57.806L193.162 58.799L192.509 59.551L190.716 60.3278L191.178 61.4903L190.791 62.1693L191.276 62.8957L190.114 63.3573L190.066 64.2295L189.316 65.1509L189.148 66.6292L189.609 67.7916L189.465 68.8339L188.689 68.6165L188.181 69.901L187.358 70.5558L199.036 69.7945L210.978 68.9603L210.906 68.6937L218.368 68.2271L227.065 67.5655L239.469 66.3196L247.657 65.3677L253.738 64.5628L253.638 61.5825L254.025 60.9034L255.697 60.7321L256.181 59.8836L256.446 58.2359L257.657 56.9021L259.279 56.0287L261.75 55.6387L264.242 53.2377L266.058 52.0248L267.027 51.9027L267.776 49.4046L268.551 49.622L268.865 48.677L270.318 47.7064L271.046 48.7959L271.941 48.4072L272.812 46.8803L274.798 45.7639L276.083 46.2717L276.64 45.6898L277.462 43.4602L279.228 41.5445L279.227 39.9696L279.735 38.6851L277.094 38.9779L276.634 39.3903L267.113 40.7066L258.126 41.8772L258.129 41.8803Z"/><path fill="#3C9980" stroke="#fff" stroke-linejoin="round" stroke-width="1.168" d="M341.122 28.0441L340.855 28.117L340.322 28.2627L340.904 28.8197L341.388 27.9712L341.122 28.0441ZM340.153 28.1662L336.519 29.0172L326.781 31.1091L320.144 32.4958L312.001 34.1505L303.159 35.8543L296.715 36.9015L290.369 37.7793L284.554 38.5113L280.073 38.8788L279.733 38.6851L279.225 39.9696L279.227 41.5445L277.46 43.4602L276.638 45.6898L276.081 46.2717L274.797 45.7639L272.811 46.8803L271.94 48.4072L271.044 48.7959L270.316 47.7064L268.863 48.677L268.549 49.622L267.774 49.4046L267.025 51.9027L266.056 52.0248L264.24 53.2377L261.748 55.6387L259.278 56.0287L257.655 56.9021L256.444 58.2359L256.179 59.8836L255.695 60.7321L254.024 60.9034L253.637 61.5825L253.736 64.5628L259.551 63.8308L266.963 62.6615L270.281 61.1807L270.984 61.1315L272.897 59.7484L275.755 58.6801L281.473 58.1181L289.129 57.312L289.856 58.4016L290.777 57.5767L292.692 59.3435L293.202 61.2087L305.025 59.4058L305.461 59.4295L311.111 63.3256L319.79 69.3996L323.181 68.1854L325.725 68.062L326.209 67.2135L327.008 66.9949L326.958 64.7173L327.199 63.5056L328.481 60.8636L329.788 59.3603L331.337 58.2203L332.45 57.0566L332.934 56.2081L336.01 54.3641L338.651 54.0713L339.498 52.9805L340.104 53.1013L341.628 50.8225L340.973 49.9995L338.962 49.9771L337.969 50.5353L336.856 51.699L334.869 51.2405L336.734 50.7303L338.525 48.3786L337.24 47.8708L338.96 46.8274L338.668 45.7614L336.488 45.6425L333.99 44.8936L336.097 44.7466L337.309 44.9877L337.308 43.4128L338.375 44.6962L339.004 44.3809L341.088 44.67L342.323 44.475L344.452 40.7421L345.808 39.9416L345.953 38.8994L345.612 37.1308L344.545 35.8474L343.696 35.3634L342.559 36.9632L342.972 38.9978L342.027 38.6838L341.566 37.5214L341.661 35.777L339.99 35.9484L338.174 37.1613L337.131 37.0168L336.308 37.6715L334.37 37.9157L334.539 36.4374L336.283 36.5327L337.396 35.369L339.625 34.6158L341.198 33.0397L343.04 32.9656L341.801 30.0108L340.613 29.3336L340.152 28.1712L340.153 28.1662Z"/><path fill="#3C9980" stroke="#fff" stroke-linejoin="round" stroke-width="1.168" d="M319.791 69.397L311.112 63.323L305.462 59.427L305.026 59.4033L293.203 61.2062L292.693 59.341L290.778 57.5743L289.857 58.3991L289.13 57.3095L281.474 58.1156L275.756 58.6776L272.898 59.7459L270.985 61.129L270.282 61.1782L266.964 62.659L266.65 63.604L265.15 65.4468L264.981 66.9251L265.394 67.3848L267.696 68.4732L269.127 69.5135L270.871 69.6089L271.429 70.6019L272.157 71.6915L272.691 73.1206L274.534 74.6213L274.996 75.7838L277.638 77.0659L279.068 78.1062L279.942 79.7291L281.832 80.3583L283.262 81.3986L283.36 82.8041L284.645 83.3118L284.937 84.3777L285.761 85.2978L288.67 86.507L289.205 87.9361L290.029 88.8563L290.66 90.1147L290.832 91.7861L292.965 92.7779L293.547 93.3348L294.154 95.0305L294.639 95.7569L294.738 97.1623L295.805 98.4457L296.508 98.3965L298.059 98.8313L298.082 98.3952L299.559 96.9885L300.14 95.9706L298.54 94.8331L298.83 94.3241L300.357 95.195L301.423 94.9035L302.463 93.4731L301.905 92.4801L300.79 92.0689L301.007 91.2933L302.461 91.8976L303.431 91.7755L305.27 90.1265L306.796 89.4225L308.006 88.0888L308.151 87.0465L309.241 86.3189L310.475 84.549L310.643 83.0707L311.685 83.2152L312.848 82.7536L314.396 80.0387L314.659 76.816L316.328 73.4956L317.853 71.2168L319.789 69.3977L319.791 69.397Z"/><path fill="#3C9980" stroke="#fff" stroke-linejoin="round" stroke-width="1.168" d="M210.976 68.961L199.034 69.7951L187.356 70.5564L187.915 71.5494L186.994 72.3742L185.736 73.0053L185.858 73.974L184.792 74.2656L184.454 75.6467L184.673 76.446L184.554 78.6264L182.084 80.5913L181.673 81.7064L180.753 82.5312L181.505 83.1847L181.287 83.9603L179.326 84.6406L179.98 85.4635L179.594 86.142L179.982 87.0378L178.409 88.6139L178.967 89.6069L178.192 90.9644L179.283 91.8116L179.212 93.1199L178.728 93.9684L179.649 94.7184L179.747 96.1239L179.021 96.6091L179.119 98.0146L180.187 99.2979L179.703 100.146L179.461 101.358L180.14 101.745L179.39 102.666L179.44 103.369L180.264 104.289L180.363 105.695L182.472 107.122L180.876 110.71L180.562 111.655L179.836 112.14L178.796 113.57L177.9 113.959L177.198 115.583L176.982 117.934L175.965 118.928L176.427 120.09L175.896 121.811L174.83 122.102L175.218 122.998L175.001 123.774L175.632 125.032L174.712 125.857L185.856 125.242L197.267 124.553L197.316 125.256L196.229 129.133L196.933 130.659L198.437 131.966L199.02 134.098L199.747 135.187L200.426 135.574L201.395 135.452L201.709 134.507L202.532 133.852L206.289 132.395L207.209 131.57L208.251 131.715L209.512 132.659L211.619 132.512L212.831 132.753L213.581 131.831L212.021 120.372L210.85 111.385L211.277 100.385L211.512 92.8719L211.748 85.3589L211.766 78.6233L212.049 70.2399L210.982 68.9566L210.976 68.961Z"/><path fill="#3C9980" stroke="#fff" stroke-linejoin="round" stroke-width="1.168" d="M295.183 108.208L295.813 106.318L295.11 106.367L294.675 107.919L295.184 108.209L295.183 108.208ZM298.058 98.8263L296.507 98.3915L295.805 98.4407L294.737 97.1574L294.639 95.7519L294.154 95.0256L293.546 93.3298L292.964 92.7729L290.831 91.7811L290.66 90.1097L290.029 88.8513L289.204 87.9311L288.67 86.502L285.761 85.2928L284.936 84.3727L284.645 83.3068L283.36 82.7991L283.262 81.3937L281.831 80.3533L279.941 79.7241L279.068 78.1012L277.637 77.0609L274.995 75.7788L274.534 74.6163L272.691 73.1156L272.156 71.6865L271.429 70.5969L270.871 69.6039L269.126 69.5086L267.696 68.4682L265.393 67.3799L264.981 66.9201L265.149 65.4418L266.65 63.599L266.964 62.654L259.551 63.8233L253.737 64.5553L247.656 65.3602L239.468 66.3121L240.343 69.5092L242.19 75.7346L244.231 83.1953L247.171 93.417L247.779 95.1128L248.191 95.5725L249.041 97.6315L250.108 98.9148L250.57 100.077L250.838 101.579L251.759 102.329L250.476 103.396L250.258 104.172L250.332 106.014L249.584 108.512L250.191 110.207L250.919 111.297L251.21 112.363L250.922 116.022L251.117 117.257L252.281 118.37L252.476 119.606L253.277 120.962L253.884 122.658L254.563 123.044L262.365 122.771L269.827 122.304L276.416 121.79L285.55 121.152L286.23 123.114L286.812 123.671L288.144 123.306L288.215 120.423L287.56 119.6L287.535 118.461L288.212 117.273L288.915 117.224L291.508 117.803L293.955 117.849L293.275 115.888L293.273 114.313L294.194 113.488L293.44 111.26L294.289 111.744L295.353 109.877L294.505 109.393L293.874 108.135L294.26 105.881L295.251 103.748L296.631 102.512L296.267 101.179L297.309 101.324L298.737 99.2144L298.058 98.8276L298.058 98.8263Z"/><path fill="#3C9980" stroke="#fff" stroke-linejoin="round" stroke-width="1.168" d="M309.17 145.194L308.394 144.977L307.741 145.729L308.058 147.933L308.808 147.012L309.17 145.195V145.194ZM234.438 129.558L231.337 130.263L231.143 130.602L234.438 129.558ZM293.957 117.852L291.51 117.806L288.917 117.226L288.214 117.276L287.537 118.464L287.562 119.602L288.217 120.425L288.146 123.309L286.814 123.673L286.232 123.116L285.552 121.154L276.418 121.792L269.828 122.307L262.366 122.773L254.565 123.047L253.886 122.66L253.278 120.964L252.478 119.608L241.479 120.756L233.991 121.659L222.386 122.687L222.024 124.504L223.673 126.344L224.934 127.287L224.596 128.669L224.985 129.564L225.76 129.782L225.156 131.236L226.271 131.647L228.062 129.295L227.964 127.89L229.128 129.003L229.587 128.591L230.678 129.438L229.492 130.336L233.731 129.605L235.887 128.586L236.929 128.73L238.187 128.099L240.005 128.461L239.012 129.019L237.486 129.723L241.121 130.447L243.69 131.463L245.217 132.334L244.683 130.904L245.482 130.686L246.089 132.382L250.138 135.14L250.866 136.23L251.133 137.732L253.095 137.051L256.002 136.686L257.721 135.642L258.471 134.721L260.118 133.411L262.032 133.603L261.983 132.9L260.675 132.829L261.425 131.907L262.708 130.84L264.114 130.742L265.543 130.207L267.749 131.466L268.452 131.417L269.978 132.287L271.142 133.401L272.113 134.853L273.664 135.288L273.908 137.226L276.381 138.411L277.181 139.768L278.126 140.081L279.024 141.268L281.229 140.951L282.15 141.701L282.587 143.299L283.582 144.316L284.187 144.437L284.504 146.641L284.726 150.59L283.736 154.298L284.198 155.461L283.717 159.459L284.322 159.58L285.995 160.983L286.528 160.838L286.89 159.021L286.574 158.391L285.12 157.787L285.362 156.575L286.477 156.987L288.004 157.857L288.633 157.542L289.337 159.068L287.812 161.347L287.644 162.825L286.651 163.383L286.943 164.449L287.961 165.03L288.228 166.532L291.236 170.721L292.134 171.907L293.685 172.342L294.144 170.354L295.234 171.201L295.358 173.745L296.207 175.804L297.734 176.675L298.703 176.553L298.971 178.055L299.286 178.684L300.015 181.349L301.954 182.679L301.737 183.455L303.408 183.283L305.565 183.839L306.656 184.686L308.573 188.027L309.616 189.747L310.465 190.231L311.943 190.399L312.695 191.053L312.478 191.828L310.757 191.297L309.836 190.547L309.667 192.025L311.001 193.235L313.133 192.652L313.787 191.9L315.604 192.262L317.007 190.59L319.018 190.612L319.163 189.57L320.107 188.309L319.499 186.613L319.595 184.869L320.126 183.148L320.586 182.736L320.487 181.33L321.044 180.749L320.921 178.205L320.821 175.225L320.503 171.445L320.697 171.106L319.991 168.005L319.238 165.777L317.952 163.694L317.516 163.67L314.702 159.142L313.852 157.083L307.957 148.099L306.718 145.144L306.233 144.418L305.626 142.722L307.08 143.327L307.081 144.901L309.019 144.657L309.553 146.086L309.458 147.831L309.678 150.205L310.211 150.059L309.651 147.491L310.135 146.643L309.601 145.214L304.168 138.965L299.971 132.524L298.806 129.836L296.014 123.297L295.819 122.061L294.945 120.439L294.725 118.064L293.95 117.847L293.957 117.852Z"/><path fill="#3C9980" stroke="#fff" stroke-linejoin="round" stroke-width="1.168" d="M239.471 66.3196L227.067 67.5655L218.37 68.2271L210.908 68.6937L210.981 68.9603L212.048 70.2437L211.764 78.627L211.746 85.3626L211.511 92.8757L211.275 100.389L210.849 111.389L212.019 120.376L213.58 131.835L213.943 131.593L216.972 132.196L216.971 130.621L217.38 127.931L218.615 127.736L219.15 129.165L218.836 130.11L219.321 130.837L220.994 132.24L220.849 133.282L223.247 132.626L223.368 132.021L224.457 131.293L225.305 130.202L224.989 129.573L224.601 128.677L224.939 127.296L223.678 126.352L222.029 124.513L222.391 122.696L233.996 121.668L241.484 120.765L252.483 119.617L252.288 118.381L251.124 117.268L250.929 116.033L251.217 112.374L250.925 111.308L250.197 110.219L249.59 108.523L250.339 106.025L250.265 104.183L250.482 103.408L251.766 102.341L250.844 101.59L250.576 100.088L250.115 98.926L249.047 97.6427L248.198 95.5837L247.785 95.124L247.178 93.4282L244.238 83.2065L242.196 75.7458L240.35 69.5204L239.474 66.3233L239.471 66.3196Z"/><path fill="#3C9980" stroke="#fff" stroke-linejoin="round" stroke-width="1.168" d="M109.07 172.748L108.634 172.725L106.747 176.821L107.449 176.772L109.069 172.748H109.07ZM110.982 169.791L113.232 167.027L112.553 166.64L111.852 168.264L110.981 169.791H110.982ZM118.681 163.388L117.373 163.317L115 165.111L113.764 165.306L114.153 166.202L115.073 165.377L118.682 163.388L118.681 163.388ZM137.906 149.392L136.405 151.235L138.851 149.706L137.906 149.392ZM141.027 90.6828L140.591 90.6591L138.118 89.4742L136.737 89.136L135.501 87.7561L134.725 87.5387L132.689 86.3774L132.204 87.2259L131.211 87.7841L129.128 87.4951L128.473 86.6721L126.487 87.7885L125.518 87.9106L124.67 87.4265L123.411 88.0576L122.176 88.2526L121.692 89.1011L120.553 89.126L120.069 89.9745L119.171 88.7883L118.299 88.7404L117.378 87.9903L116.553 87.0702L116.069 87.9187L114.252 87.5567L113.524 86.4671L111.757 88.3828L111.443 89.3278L110.741 89.3771L110.255 88.6507L110.666 87.5356L110.254 87.0758L108.366 88.0221L107.494 87.9741L107.276 87.1748L106.233 87.0303L105.942 85.9644L104.9 85.8199L103.52 87.0565L102.624 87.4452L101.775 86.9612L101.92 85.9189L100.296 85.2175L100.295 83.6426L99.0592 83.8376L97.508 83.4027L96.7579 84.3241L95.7892 84.4462L94.8915 83.2601L93.22 83.4314L91.4994 82.9L90.6509 82.4159L89.9482 82.4652L87.9609 82.0067L88.0325 80.6984L87.3049 79.6088L85.9475 78.8345L85.8029 79.8767L84.0823 79.3453L82.5803 79.6132L80.446 77.0465L79.1377 76.9749L79.6847 65.3689L80.1856 56.2099L80.3986 50.7097L72.2813 50.3534L60.7718 49.6363L47.7847 48.7511L47.3486 48.7274L46.9406 52.9923L46.0541 64.4045L45.3819 71.8927L44.326 83.2059L43.247 96.5325L42.0951 109.593L31.8216 108.681L21.5482 107.768L8.85137 106.374L0.588867 105.485L1.24484 107.883L2.06967 108.803L3.59659 109.674L4.27686 111.636L5.39324 113.622L7.35623 114.517L8.66572 116.163L9.70919 117.882L11.4554 119.553L11.8441 120.448L13.9056 122.748L15.4325 123.619L16.8391 125.096L17.8571 125.676L19.07 127.492L19.3379 128.994L20.3334 131.586L20.8916 132.579L20.5059 134.832L20.7009 136.068L21.7201 138.223L22.0609 139.992L22.9586 141.178L24.0494 142.025L25.0917 142.17L27.2989 145.002L28.6563 145.777L30.3041 146.042L30.3533 146.745L31.6142 147.689L33.1654 148.123L33.893 149.213L34.9839 150.06L35.856 150.108L37.7461 150.737L38.2302 149.889L39.8038 148.313L40.9663 147.851L41.2317 146.203L42.7312 142.786L44.0618 140.846L46.0964 140.433L47.3081 140.674L47.8888 139.656L48.7846 139.267L50.9905 140.526L52.5654 140.524L56.6365 141.272L57.6053 141.15L59.3259 141.681L59.7875 142.844L60.3694 143.401L61.2416 143.449L62.2851 145.168L63.3759 146.015L63.6674 147.081L66.0191 148.872L66.5537 150.301L67.475 151.051L67.9379 153.789L69.2474 155.435L69.3458 156.841L70.4859 158.39L71.6527 162.653L72.5504 163.839L74.0773 164.71L74.8542 166.502L76.3337 168.245L76.4321 169.651L77.1112 170.038L78.2512 171.587L79.6324 171.925L80.6266 172.942L80.4821 173.984L81.0403 174.977L80.5326 176.262L81.3094 178.054L80.8509 180.041L82.0389 180.719L82.161 181.687L83.2518 182.535L83.7371 183.261L83.762 184.4L84.7563 185.416L84.2249 187.137L84.8068 187.694L85.2441 189.293L86.7224 189.461L87.5709 189.945L88.7097 189.92L89.4373 191.01L90.5282 191.857L91.3274 191.638L93.8966 192.654L94.7943 193.84L95.8122 194.42L99.3015 194.611L101.046 194.706L102.427 195.045L105.7 197.586L107.879 196.13L109.285 196.031L109.26 194.893L108.074 195.79L108.049 194.651L107.127 193.901L107.272 192.859L106.641 191.601L106.689 190.729L105.428 189.785L105.863 188.234L105.085 184.866L104.333 184.213L104.476 181.596L105.275 181.377L105.08 180.142L105.709 179.827L105.901 177.912L104.908 178.47L103.43 178.302L103.478 177.43L104.736 176.799L106.117 177.137L108.124 172.435L107.033 171.588L106.669 170.255L105.361 170.184L105.045 169.554L108.195 169.552L109.213 170.132L111.197 167.441L110.082 167.03L109.865 167.806L108.774 166.958L109.524 166.037L112.94 165.962L114.151 164.628L114.126 163.489L113.495 162.231L114.294 162.012L115.603 163.659L118.749 162.081L117.44 160.435L116.592 159.951L116.905 159.006L118.287 159.344L118.94 158.592L119.425 159.318L120.515 158.591L121.05 160.02L125.797 158.004L127.371 158.003L128.534 157.542L130.713 156.086L131.246 155.94L133.909 153.636L133.81 152.231L134.9 151.503L136.957 149.078L136.375 148.522L135.332 146.802L135.378 144.355L137.171 145.153L137.776 143.699L138.575 143.48L139.303 144.57L138.554 147.068L140.322 146.727L139.815 148.012L146.814 144.808L149.091 144.758L148.291 143.401L148.532 142.19L149.233 140.566L149.936 140.516L150.88 139.255L150.78 136.275L150.416 134.943L150.9 134.094L150.463 132.496L150.922 132.083L152.228 129.005L152.759 127.284L152.105 126.461L152.831 125.976L150.938 122.201L151.155 121.425L149.118 118.689L149.213 116.945L148.12 114.523L146.448 113.119L146.242 99.283L146.041 91.745L145.532 91.4547L143.182 91.2385L142.189 91.7967L141.025 90.6834L141.027 90.6828Z"/><path fill="#3C9980" stroke="#fff" stroke-linejoin="round" stroke-width="1.168" d="M173.928 146.546L174.872 145.285L172.373 144.536L171.211 144.998L171.26 145.701L173.393 146.692L173.926 146.547L173.928 146.546ZM200.424 135.572L199.745 135.185L199.017 134.095L198.434 131.964L196.931 130.657L196.227 129.131L197.314 125.253L197.265 124.551L185.854 125.239L174.71 125.855L175.63 125.03L174.999 123.771L175.216 122.996L174.827 122.1L175.893 121.808L176.425 120.088L175.963 118.925L176.98 117.931L177.196 115.581L177.897 113.956L178.793 113.568L179.833 112.137L180.56 111.652L180.874 110.707L182.47 107.12L180.361 105.692L180.262 104.287L179.437 103.367L179.388 102.664L180.138 101.742L179.459 101.356L179.7 100.144L180.184 99.2954L179.117 98.0121L170.783 98.4313L164.556 98.703L156.489 99.0493L146.24 99.2761L146.446 113.112L148.119 114.516L149.211 116.938L149.116 118.682L151.154 121.418L150.936 122.194L152.829 125.969L152.103 126.455L152.758 127.278L152.226 128.998L150.921 132.076L150.461 132.489L150.898 134.087L150.414 134.936L150.779 136.268L150.878 139.249L149.935 140.509L150.347 140.969L150.009 142.35L148.919 143.078L149.55 144.336L150.713 143.875L154.153 143.363L157.133 143.263L159.12 143.722L163.313 145.438L164.961 145.703L168.257 146.233L169.88 145.359L170.17 144.85L169.612 143.857L169.829 143.082L171.355 142.378L171.549 142.038L173.22 141.867L172.809 142.982L175.086 142.932L175.862 143.149L175.621 144.361L176.59 144.239L177.028 145.837L179.718 146.246L180.177 145.834L180.881 147.36L179.744 148.959L180.932 149.637L182.822 150.266L184.47 150.531L185.705 150.336L187.329 151.038L188.781 148.492L190.888 148.345L192.609 148.877L192.368 150.088L193.095 151.178L194.742 149.868L194.474 148.366L195.151 147.178L194.398 144.95L195.755 145.724L196.555 145.506L198.154 146.643L198.47 147.272L200.094 147.974L200.336 148.337L201.814 148.505L203.197 150.418L204.046 150.903L205.524 151.071L207.364 149.422L206.127 148.042L205.06 146.759L203.389 146.93L202.201 146.253L201.232 146.375L200.94 145.309L199.389 144.874L198.662 143.784L199.557 143.396L201.566 140.268L202.148 140.825L203.092 139.564L201.807 139.057L201.733 137.215L200.013 138.259L199.579 139.81L198.876 139.859L196.937 138.528L197.371 136.977L196.183 136.3L195.699 137.149L194.513 138.046L193.011 138.314L190.855 137.758L189.764 136.911L190.005 135.699L192.062 133.275L193.976 133.467L195.213 134.847L197.563 135.063L198.218 135.886L200.423 135.569L200.424 135.572Z"/><path fill="#3C9980" stroke="#fff" stroke-linejoin="round" stroke-width="1.168" d="M139.129 51.823L139.147 45.0874L131.443 45.1908L124.004 45.2213L111.501 45.0625L101.543 44.7803L91.5849 44.498L86.5208 44.3087L76.4909 43.7598L66.461 43.211L58.6109 42.7817L48.3375 41.8697L47.7861 48.7536L60.7733 49.6388L72.2827 50.3559L80.4001 50.7122L80.187 56.2124L79.6861 65.3714L79.1391 76.9774L80.4474 77.049L82.5817 79.6157L84.0837 79.3478L85.8043 79.8792L85.9489 78.837L87.3063 79.6113L88.034 80.7009L87.9623 82.0091L89.9496 82.4677L90.6523 82.4184L91.5008 82.9025L93.2215 83.4339L94.8929 83.2626L95.7906 84.4487L96.7593 84.3266L97.5094 83.4052L99.0606 83.8401L100.296 83.6451L100.297 85.2199L101.921 85.9214L101.777 86.9637L102.625 87.4477L103.521 87.059L104.901 85.8224L105.943 85.9669L106.235 87.0328L107.277 87.1773L107.496 87.9766L108.368 88.0246L110.255 87.0783L110.668 87.538L110.257 88.6531L110.742 89.3795L111.445 89.3303L111.759 88.3853L113.525 86.4696L114.253 87.5592L116.07 87.9212L116.554 87.0727L117.379 87.9928L118.301 88.7429L119.173 88.7908L120.07 89.977L120.554 89.1285L121.693 89.1036L122.177 88.2551L123.413 88.0601L124.671 87.429L125.52 87.9131L126.488 87.791L128.474 86.6746L129.129 87.4975L131.213 87.7866L132.206 87.2284L132.69 86.3799L134.726 87.5411L135.502 87.7586L136.739 89.1385L138.12 89.4767L140.592 90.6616L141.028 90.6853L141.096 84.6524L141.304 72.8527L141.275 66.9892L140.446 61.3451L139.13 51.8242L139.129 51.823Z"/><path fill="#3C9980" stroke="#fff" stroke-linejoin="round" stroke-width="1.168" d="M139.148 45.0824L138.846 32.9924L138.791 25.9901L138.71 16.2749L136.504 15.0164L135.655 12.9575L133.666 10.9241L134.295 9.03403L135.143 7.9432L135.748 8.06406L135.989 6.85239L134.559 5.81202L133.832 6.29731L132.644 5.62013L131.311 4.4097L120.457 4.51624L113.988 4.42466L105.168 4.11753L98.6992 4.02595L87.6994 3.59921L74.7852 2.98059L68.2433 2.62302L61.3594 2.07169L60.7857 10.964L60.3552 17.2373L59.7815 26.1297L59.136 36.3302L58.6084 42.7755L66.4585 43.2048L76.4884 43.7536L86.5182 44.3024L91.5824 44.4918L101.541 44.774L111.499 45.0562L124.002 45.2151L131.44 45.1846L139.145 45.0812L139.148 45.0824Z"/><path fill="#3C9980" stroke="#fff" stroke-linejoin="round" stroke-width="1.168" d="M192.847 56.5949L185.725 57.2553L186.136 56.1402L187.37 54.3703L188.266 53.9816L188.847 52.9636L188.822 51.8249L187.778 50.1054L178.039 50.6225L169.002 51.091L157.084 51.4891L148.144 51.7875L139.131 51.8192L140.447 61.3401L141.276 66.9843L141.305 72.8477L141.097 84.6474L141.03 90.6803L142.193 91.7936L143.186 91.2354L145.537 91.4516L146.046 91.7419L146.246 99.2799L156.495 99.0531L164.562 98.7067L170.789 98.4351L179.123 98.0158L179.025 96.6104L179.751 96.1251L179.653 94.7197L178.731 93.9696L179.215 93.1211L179.287 91.8129L178.196 90.9656L178.971 89.6082L178.412 88.6152L179.986 87.039L179.597 86.1432L179.984 85.4648L179.329 84.6418L181.291 83.9616L181.509 83.1859L180.757 82.5325L181.677 81.7076L182.088 80.5925L184.557 78.6277L184.676 76.4472L184.458 75.648L184.796 74.2668L185.862 73.9753L185.74 73.0066L186.998 72.3755L187.918 71.5507L187.36 70.5576L188.183 69.9029L188.691 68.6183L189.466 68.8358L189.611 67.7935L189.149 66.6311L189.318 65.1527L190.068 64.2314L190.116 63.3592L191.278 62.8976L190.793 62.1712L191.18 61.4921L190.718 60.3297L192.51 59.5528L193.164 58.8009L192.606 57.8079L193.574 57.6858L192.847 56.5962L192.847 56.5949Z"/></g><defs><clipPath id="clip0_4200_519"><rect width="347" height="198" fill="#fff" transform="translate(0 0.989532)"/></clipPath></defs></svg>