<svg xmlns="http://www.w3.org/2000/svg" width="307" height="364" fill="none" viewBox="0 0 307 364"><g clip-path="url(#clip0_4200_572)"><path fill="#01A3C6" stroke="#fff" stroke-linejoin="round" stroke-width="1.168" d="M152.348 316.772L150.398 316.88L147.653 318.519L147.242 319.725L149.086 321.08L151.603 321.752L153.531 318.106L152.346 316.772H152.348ZM141.751 322.742L143.248 321.224L141.318 321.458L141.751 322.742ZM171.519 325.732L169.965 324.285L168.568 325.875L167.099 326.514L168.902 329.976L170.25 328.613L172.577 330.501L174.095 329.373L173.74 327.77L172.186 327.636L171.518 325.735L171.519 325.732ZM179.87 330.943L179.339 332.738L182.212 332.652L184.851 333.261L186.739 332.246L186.873 331.742L183.439 331.091L183.284 331.467L179.871 330.943H179.87ZM188.491 333.572L187.363 334.154L188.13 336.652L189.903 336.794L190.479 338.928L192.324 339.758L194.579 339.118L196.455 337.756L192.516 334.61L188.494 333.576L188.491 333.572ZM184.328 337.724L185.668 336.843L184.561 335.191L183.263 335.014L182.519 335.794L183.278 336.149L183.676 337.745L184.329 337.724H184.328ZM189.295 340.482L188.33 339.68L187.436 340.88L189.295 340.482ZM212.306 354.356L210.07 352.236L210.098 351.618L208.609 351.342L208.558 349.467L204.06 346.369L202.185 345.894L199.46 344.249L197.708 344.761L198.688 347.222L195.746 351.608L196.817 353.31L197.96 356.488L198.622 361.496L201.126 363.134L202.672 360.601L205.388 358.528L208.729 357.577L211.566 355.701L212.303 354.353L212.306 354.356Z"/><path fill="#01A3C6" stroke="#fff" stroke-linejoin="round" stroke-width="1.168" d="M294.368 79.4942L285.452 79.3566L276.536 79.2189L267.716 78.9118L258.824 78.338L254.463 78.0994L245.742 77.6222L239.03 77.1674L228.054 76.3046L223.183 75.7757L222.128 88.6663L221.959 88.5697L221.503 93.7068L220.591 103.98L219.511 115.732L229.784 116.644L238.24 117.194L245.124 117.745L255.154 118.294L263.61 118.844L274.707 119.101L277.059 120.892L279.435 122.247L280.137 122.198L280.985 121.107L282.899 121.299L284.474 121.298L286.412 121.053L288.182 122.288L290.847 123.133L291.333 123.859L292.375 124.004L292.424 124.707L293.322 125.893L294.534 126.134L294.193 124.365L292.956 122.985L293.731 121.628L294.432 120.004L294.31 119.035L294.891 118.017L294.623 116.515L293.75 116.467L294.04 114.383L293.602 112.785L294.91 112.856L295.145 103.77L295.115 97.9069L295.204 88.2881L294.137 87.0048L292.925 86.7637L291.323 84.0513L291.444 83.4458L293.454 81.8933L294.373 79.4936L294.368 79.4942Z"/><path fill="#01A3C6" stroke="#fff" stroke-linejoin="round" stroke-width="1.168" d="M294.53 126.136L293.318 125.895L292.42 124.709L292.371 124.006L291.329 123.862L290.843 123.135L288.178 122.29L286.408 121.056L284.47 121.3L282.895 121.301L280.981 121.109L280.133 122.2L279.431 122.25L277.055 120.895L274.703 119.104L263.606 118.847L255.15 118.297L245.12 117.748L238.236 117.197L229.78 116.647L219.507 115.734L218.33 127.658L217.61 136.018L216.89 142.803L224.547 143.571L231.864 144.146L237.364 144.359L236.359 157.953L243.243 158.504L249.785 158.862L262.699 159.48L273.699 159.907L280.168 159.999L288.987 160.306L295.456 160.397L306.31 160.291L305.292 159.71L305.34 158.838L303.06 155.739L302.404 153.341L301.676 152.251L301.724 151.379L300.633 150.532L300.947 149.587L300.824 147.043L300.582 146.68L300.531 144.402L300.119 143.943L300.554 142.392L299.778 142.174L300.044 140.526L298.444 139.389L298.345 137.983L298.634 135.9L297.98 135.077L297.808 133.405L296.814 132.388L296.595 131.589L295.868 130.5L295.939 129.191L295.381 128.198L295.477 126.454L294.531 126.14L294.53 126.136Z"/><path fill="#01A3C6" stroke="#fff" stroke-linejoin="round" stroke-width="1.168" d="M219.505 115.733L220.585 103.981L221.497 93.7074L221.953 88.5703L214.903 87.9225L207.512 87.0808L200.291 86.3357L191.859 85.3496L181.44 83.9049L173.104 82.7493L162.782 81.1352L155.148 79.9303L153.991 86.6908L152.11 97.0864L150.688 105.495L149.362 113.733L148.229 120.058L146.012 133.409L149.647 134.133L159.8 135.651L166.222 136.615L174.121 137.747L180.543 138.71L186.891 139.407L193.313 140.371L199.662 141.068L206.01 141.765L216.89 142.798L217.611 136.013L218.33 127.653L219.507 115.729L219.505 115.733Z"/><path fill="#01A3C6" stroke="#fff" stroke-linejoin="round" stroke-width="1.168" d="M148.23 120.056L135.148 117.766L126.061 115.957L118.621 114.413L117.318 120.64L114.712 133.096L113.121 141.408L110.973 151.876L108.367 164.332L106.317 174.631L105.015 180.859L111.679 182.186L121.542 184.212L126.485 185.008L134.797 186.6L143.205 188.022L149.796 189.082L158.301 190.334L159.192 183.647L160.975 171.846L162.131 163.51L163.818 153.456L164.973 145.12L166.226 136.615L159.804 135.651L149.651 134.133L146.016 133.409L148.233 120.058L148.23 120.056Z"/><path fill="#01A3C6" stroke="#fff" stroke-linejoin="round" stroke-width="1.168" d="M46.2065 37.1383L45.5773 37.4535L44.2928 36.9458L43.5888 35.4201L42.4263 35.8817L40.003 35.3996L39.1781 34.4794L39.0828 36.2238L38.7445 37.6049L37.9453 37.8236L37.9702 38.9623L37.1958 40.3198L37.4637 41.8218L36.7137 42.7432L36.1094 44.1972L36.4246 44.8264L35.5045 45.6512L35.5537 46.3539L34.9245 48.244L33.0861 51.4679L32.6992 52.147L31.7567 54.9827L27.8394 64.2171L27.065 65.5745L24.7426 69.6469L24.2585 70.4954L23.3864 70.4474L21.4271 74.2775L19.8298 76.2897L19.6616 77.768L20.2927 79.0264L19.9544 80.4075L19.4704 81.256L18.7452 83.3162L18.7465 84.8911L18.4082 86.2722L19.3545 88.1598L27.0856 90.7701L34.7438 93.1137L39.7338 94.6113L47.392 96.9549L52.4811 98.2831L60.0664 100.36L65.495 101.882L72.9109 103.862L80.1567 105.744L89.2204 107.989L92.1658 95.7271L94.7966 84.4076L96.5384 81.3532L96.3198 80.5539L97.2636 79.293L96.6325 78.0346L94.839 77.2366L95.4183 74.6438L96.6045 73.7461L98.0323 71.6367L99.0253 71.0785L100.236 69.7447L100.671 68.1935L102.05 66.9569L103.235 64.4843L105.656 61.8174L105.97 60.8723L105.702 59.3703L104.465 57.9905L103.786 57.6036L103.228 56.6106L103.3 55.3023L93.6304 52.9363L83.6192 50.3765L82.6262 50.9347L80.2994 50.2824L77.9489 50.0662L77.2225 50.5515L74.5325 50.1422L72.5944 50.3864L71.432 50.8481L69.0815 50.6319L67.8935 49.9547L67.3608 50.1005L64.9867 50.3204L63.7021 49.8127L62.7334 49.9348L61.7628 48.482L59.1937 47.4666L57.0369 46.9115L55.1717 47.4217L52.0949 47.6908L49.816 46.1664L48.7009 45.7553L48.2156 45.0289L48.7937 40.8612L48.3801 38.8265L46.9734 37.3501L46.1978 37.1327L46.2065 37.1383Z"/><path fill="#01A3C6" stroke="#fff" stroke-linejoin="round" stroke-width="1.168" d="M222.782 204.625L223.333 197.741L215.143 197.118L208.965 196.517L200.872 195.725L188.611 194.354L180.614 193.392L174.532 192.622L164.283 191.274L158.297 190.334L156.9 199.881L155.719 207.078L154.635 214.105L153.238 223.652L152.324 230.776L151.143 237.972L150.059 245L149.048 252.293L147.651 261.84L146.855 266.784L147.728 266.832L156.499 268.011L157.439 262.025L169.506 263.735L177.066 264.673L176.241 263.753L175.585 261.355L183.848 262.244L196.544 263.638L206.818 264.55L217.091 265.462L218.243 252.402L219.322 239.076L220.378 227.763L221.05 220.274L221.937 208.862L222.345 204.597L222.781 204.621L222.782 204.625Z"/><path fill="#01A3C6" stroke="#fff" stroke-linejoin="round" stroke-width="1.168" d="M105.009 180.858L106.311 174.63L108.361 164.331L110.967 151.876L113.115 141.407L114.706 133.096L117.312 120.64L118.615 114.412L107.54 112.144L102.088 111.058L89.22 107.993L80.1564 105.748L72.9106 103.866L65.4947 101.886L60.0661 100.364L58.1847 107.61L55.552 117.352L54.2475 122.005L51.4454 131.65L49.3447 139.672L54.6581 148.099L58.4669 153.644L64.0469 161.998L69.8455 171.151L75.9108 180.232L80.0349 186.406L85.1788 194.737L88.0899 199.095L93.0388 206.19L93.4008 204.372L94.2237 203.718L94.5128 201.634L94.1228 199.163L94.7271 197.709L94.5321 196.474L94.6037 195.165L95.1607 194.584L94.5533 192.888L95.1576 191.434L97.1922 191.02L98.3802 191.697L99.2524 191.745L100.296 193.465L101.435 193.44L102.863 191.33L105.01 180.862L105.009 180.858Z"/><path fill="#01A3C6" stroke="#fff" stroke-linejoin="round" stroke-width="1.168" d="M236.357 157.945L237.362 144.352L231.862 144.139L224.544 143.564L216.887 142.795L206.008 141.763L199.659 141.066L193.31 140.369L186.889 139.405L180.54 138.708L174.118 137.744L166.219 136.612L164.967 145.118L163.811 153.453L162.124 163.508L160.969 171.843L159.186 183.644L158.295 190.332L164.28 191.271L174.53 192.619L180.612 193.389L188.609 194.352L200.87 195.722L208.963 196.515L215.141 197.115L223.331 197.738L233.604 198.65L234.132 192.205L234.777 182.005L235.351 173.112L235.782 166.839L236.355 157.947L236.357 157.945Z"/><path fill="#01A3C6" stroke="#fff" stroke-linejoin="round" stroke-width="1.168" d="M43.3591 221.931L43.822 224.668L44.4768 225.491L45.276 225.273L44.3054 223.82L43.3591 221.932V221.931ZM45.5832 216.453L45.8018 217.252L45.7302 218.561L47.6446 218.753L47.0864 217.759L45.5832 216.452V216.453ZM30.9146 204.715L29.0974 204.353L29.1958 205.759L29.7777 206.315L31.1102 205.951L30.9152 204.716L30.9146 204.715ZM33.3617 204.761L32.5387 205.416L32.8539 206.045L34.308 206.649L35.301 206.091L33.3617 204.761V204.761ZM93.0363 206.187L88.0874 199.093L85.1762 194.734L80.0323 186.404L75.9083 180.229L69.843 171.149L64.0444 161.995L58.4644 153.641L54.6555 148.096L49.3422 139.669L51.4428 131.648L54.245 122.002L55.5495 117.349L58.1822 107.607L60.0636 100.361L52.4782 98.2844L47.3892 96.9562L39.7309 94.6126L34.7409 93.1149L27.0827 90.7713L19.3516 88.1611L18.6265 90.2212L17.973 90.9732L18.7978 91.8933L18.8719 93.7348L18.4863 95.9881L16.9139 99.1391L16.2847 99.4543L16.3588 101.296L13.9635 105.102L13.4545 104.811L10.9377 107.648L11.0119 109.49L10.625 110.169L12.3961 112.978L13.9025 117.435L13.88 119.446L13.4215 121.433L12.5743 122.524L12.0666 123.808L12.1675 128.363L11.514 129.115L11.9513 130.713L13.2863 133.499L14.5248 136.453L15.4225 137.639L16.3215 140.401L16.0561 142.048L14.822 143.818L15.8879 143.527L16.7127 144.447L17.4167 145.972L18.0222 146.093L19.1622 147.643L20.1552 147.084L19.67 146.358L20.5888 143.958L21.6547 143.667L22.6253 145.12L24.2494 145.821L25.1696 144.996L25.7277 145.989L23.7897 146.233L23.1349 145.41L21.0031 145.994L21.5862 148.125L21.0293 148.707L21.684 149.53L22.3151 150.789L22.074 152L21.4205 152.752L20.8623 151.759L19.9409 151.009L20.2774 148.053L19.042 148.248L18.8738 149.726L17.9063 151.423L18.4882 151.98L18.4657 153.991L17.9107 156.148L19.6338 159.829L20.4823 160.313L21.7906 160.385L22.4453 161.208L22.6895 163.146L22.0852 164.6L21.1651 165.425L20.5832 164.868L19.954 166.758L19.7379 169.108L20.0294 170.174L21.0237 171.191L21.8242 172.547L22.0921 174.049L22.844 174.703L22.6758 176.181L23.5492 177.804L23.89 179.572L24.8114 180.323L25.9769 183.011L26.8254 183.495L27.1406 184.124L26.2461 186.087L27.1438 187.273L28.5741 188.313L28.5261 189.186L27.3649 191.222L27.7537 192.118L27.2459 193.402L27.4646 194.202L26.4242 195.632L27.758 196.843L27.8801 197.811L31.6846 198.632L32.9692 199.139L34.1329 200.253L35.6841 200.688L36.9924 200.759L38.5922 201.897L40.1446 203.906L40.3159 205.578L43.1766 207.659L44.7035 208.53L47.3935 208.939L48.194 210.296L48.3654 211.967L47.8576 213.252L48.8756 213.832L49.602 213.347L51.2989 214.314L52.2695 215.767L54.0886 217.704L56.4416 221.07L57.8258 224.557L57.8283 227.707L57.2714 228.289L57.1761 230.033L58.0975 230.783L58.075 232.794L64.934 233.782L73.2694 234.937L85.5301 236.308L86.1593 235.993L87.7105 236.428L88.0974 235.748L89.0175 234.924L89.1857 233.445L88.5309 232.622L87.5859 232.308L86.9312 231.485L87.5354 230.031L87.2676 228.529L87.6058 227.148L88.5746 227.026L90.051 225.62L91.0665 223.05L91.2097 220.434L92.7591 219.294L93.2431 218.445L94.9388 217.838L96.5617 216.965L96.6826 216.359L94.4517 213.962L94.5962 212.92L93.891 209.82L93.382 209.529L92.7746 207.834L93.04 206.186L93.0363 206.187Z"/><path fill="#01A3C6" stroke="#fff" stroke-linejoin="round" stroke-width="1.168" d="M158.298 190.334L149.793 189.082L143.202 188.021L134.793 186.599L126.482 185.007L121.538 184.212L111.675 182.185L105.012 180.858L102.864 191.327L101.436 193.436L100.297 193.461L99.254 191.742L98.3818 191.694L97.1938 191.016L95.1592 191.43L94.5549 192.884L95.1623 194.58L94.6054 195.162L94.5337 196.47L94.7287 197.705L94.1244 199.159L94.5144 201.63L94.2254 203.714L93.4024 204.369L93.0405 206.186L92.7751 207.834L93.3825 209.529L93.8914 209.82L94.5967 212.92L94.4521 213.962L96.683 216.359L96.5621 216.965L94.9393 217.838L93.2436 218.445L92.7595 219.294L91.2102 220.434L91.0669 223.05L90.0514 225.62L88.575 227.026L87.6063 227.148L87.268 228.529L87.5359 230.031L86.9316 231.485L87.5863 232.308L88.5314 232.622L89.1861 233.445L89.0179 234.924L88.0978 235.748L87.7109 236.427L86.1597 235.993L85.5305 236.308L84.2235 237.811L83.9824 239.023L92.785 244.491L101.415 249.862L110.143 255.064L118.967 260.097L123.621 262.977L124.227 263.098L136.366 265.074L146.859 266.785L147.654 261.842L149.051 252.295L150.062 245.001L151.146 237.974L152.327 230.777L153.242 223.653L154.638 214.106L155.722 207.079L156.903 199.883L158.3 190.336L158.298 190.334Z"/><path fill="#01A3C6" stroke="#fff" stroke-linejoin="round" stroke-width="1.168" d="M60.4781 9.75237L59.8726 9.63151L58.5656 11.1347L58.4447 11.7403L59.4153 13.1931L59.0284 13.8721L59.1997 15.5435L59.8545 16.3665L60.8238 16.2444L60.8718 15.3722L60.2171 14.5493L59.4178 14.7679L59.7305 12.248L59.1487 11.6911L60.0688 10.8662L60.48 9.75112L60.4781 9.75237ZM57.4716 7.13837L56.6948 5.34608L56.1621 5.49185L56.3334 7.16329L57.4716 7.13837ZM59.4321 4.88321L58.8266 4.76235L57.737 5.48999L59.0945 6.26434L60.2569 5.80272L59.4321 4.88321ZM61.4643 1.3198L60.86 2.77382L61.5403 4.73556L62.4853 5.04954L62.5121 7.76322L61.7857 8.24851L60.8911 10.2115L61.7888 11.3976L61.4761 13.9176L62.4224 15.8052L60.9933 16.3397L59.6626 18.279L59.6146 19.1512L59.034 20.1691L58.6247 22.8591L58.7468 23.8278L57.1975 24.9679L56.5185 24.581L55.865 25.3329L54.049 26.5459L53.7575 25.48L52.6187 25.5049L52.2299 24.609L53.0772 23.5182L53.973 23.1295L53.8777 24.8738L55.3305 23.9032L56.3964 23.6117L57.6548 21.4057L57.1932 20.2432L57.3614 18.7649L59.13 18.4242L59.1524 16.4132L58.6434 16.1229L56.7066 17.942L56.0531 18.6939L54.1879 19.2041L55.8818 17.0218L56.8268 17.3358L57.747 16.511L57.8915 15.4688L57.5744 13.2641L57.7918 12.4885L55.6843 12.6355L54.9567 11.5459L53.5512 11.6443L50.8127 10.5323L49.8913 9.78227L46.9826 8.57308L45.6731 6.92656L44.3157 6.15221L43.1756 4.60287L42.1097 4.89442L40.8756 6.66429L40.9005 7.80309L40.5878 10.323L41.5341 12.2106L41.8256 13.2765L41.5858 16.0631L41.1036 18.4865L41.5173 20.5211L40.9379 23.1139L42.2225 23.6216L42.1016 24.2272L43.0959 25.2439L41.4244 25.4152L40.6744 26.3365L40.457 27.1122L41.9839 27.9831L40.994 31.691L39.0322 32.3713L39.9056 33.9941L42.1832 33.9437L42.7414 34.9367L44.0497 35.0083L45.0688 37.1638L46.2076 37.1389L46.9832 37.3563L48.3899 38.8328L48.8036 40.8674L48.2254 45.0351L48.7107 45.7615L49.8259 46.1726L52.1047 47.6971L55.1816 47.4279L57.0468 46.9177L59.2035 47.4728L61.7726 48.4882L62.7432 49.941L63.7119 49.8189L64.9965 50.3266L67.3707 50.1067L67.9033 49.961L69.0913 50.6381L71.4418 50.8543L72.6043 50.3927L74.5423 50.1485L77.2323 50.5578L77.9587 50.0725L80.3092 50.2886L82.636 50.9409L83.629 50.3827L93.6402 52.9425L103.309 55.3086L102.872 53.71L103.622 52.7886L103.5 51.8199L102.893 50.1242L103.592 46.9252L106.199 36.0443L108.324 27.5869L109.339 23.4428L111.366 15.1548L100.582 12.3782L91.0094 9.8427L79.5467 6.67862L73.682 5.13302L66.1939 2.88658L61.468 1.31606L61.4643 1.3198Z"/><path fill="#01A3C6" stroke="#fff" stroke-linejoin="round" stroke-width="1.168" d="M119.917 17.1116L111.363 15.1567L109.335 23.4447L108.321 27.5887L106.196 36.0462L103.589 46.9271L102.889 50.126L103.496 51.8218L103.618 52.7905L102.868 53.7119L103.306 55.3104L103.234 56.6187L103.792 57.6117L104.471 57.9986L105.708 59.3784L105.976 60.8804L105.662 61.8255L103.242 64.4924L102.057 66.965L100.677 68.2016L100.242 69.7528L99.0315 71.0866L98.0385 71.6448L96.6107 73.7542L95.4245 74.6519L94.8452 77.2447L96.6387 78.0427L97.2698 79.3011L96.326 80.562L96.5446 81.3613L94.8028 84.4157L92.172 95.7352L89.2266 107.997L102.095 111.063L107.547 112.149L118.622 114.416L126.061 115.961L135.148 117.77L148.231 120.06L149.364 113.735L150.69 105.497L152.112 97.0883L153.993 86.6927L152.684 85.0462L152.004 83.0844L150.695 83.0128L149.945 83.9342L149.704 85.1459L147.984 84.6145L146.918 84.906L146.336 84.3491L144.155 84.2301L142.871 83.7224L141.902 83.8445L141.418 84.693L138.413 83.6538L136.79 84.5273L135.748 84.3827L135.262 83.6563L135.407 82.6141L134.945 81.4516L135.405 81.0392L134.482 78.7143L133.004 78.5461L132.349 77.7231L131.888 76.5607L132.638 75.6393L132.128 73.7741L130.696 71.1589L130.695 69.584L130.741 67.1369L129.431 65.4904L127.615 66.7034L125.387 67.4565L124.489 66.2704L123.641 65.7863L124.512 64.2594L124.147 62.9269L124.874 62.4416L126.036 61.98L126.108 60.6717L125.646 59.5093L126.348 57.8852L126.323 56.7464L127.073 55.825L128.161 53.5225L128.765 52.0685L128.45 51.4393L126.439 51.4168L126.148 50.3509L123.99 48.221L123.965 47.0822L121.49 42.7475L121.198 41.6816L119.768 40.6413L119.306 39.4788L118.215 38.6315L119.208 38.0734L118.481 36.9838L119.207 36.4985L119.109 35.0931L118.308 33.7368L118.356 32.8647L117.094 30.3479L119.917 17.1165L119.917 17.1116Z"/><path fill="#01A3C6" fill-rule="evenodd" stroke="#fff" stroke-linejoin="round" stroke-width="1.168" d="M288.612 37.5351L281.271 37.3962L275.334 37.1588L265.376 36.8766L257.526 36.4474L251.253 36.0169L245.583 35.7067L237.659 35.0108L227.119 34.1723L225.823 48.2746L225.103 55.0594L224.047 66.3726L223.183 75.7732L228.053 76.3021L239.029 77.165L245.741 77.6197L254.463 78.0969L258.824 78.3355L267.716 78.9093L276.535 79.2164L285.451 79.3541L294.367 79.4918L294.317 77.2142L293.951 74.3074L292.811 72.758L292.494 70.5533L292.179 69.9241L292.176 66.7744L291.836 65.0058L291.785 62.7282L291.687 61.3227L291.854 58.2695L291.294 55.7016L290.614 53.7399L289.301 48.9436L289.492 45.4544L289.224 43.9524L289.755 42.2317L288.589 37.9687L288.612 37.5326L288.612 37.5351Z" clip-rule="evenodd"/><path fill="#01A3C6" stroke="#fff" stroke-linejoin="round" stroke-width="1.168" d="M227.118 34.1729L219.897 33.4279L213.888 32.9245L203.978 31.7701L198.162 30.9272L190.166 29.9647L182.436 28.9294L173.761 27.58L166.661 26.2294L158.858 24.928L147.251 22.8062L137.558 20.8762L127.695 18.8497L119.916 17.1122L117.093 30.3435L118.355 32.8603L118.307 33.7325L119.107 35.0887L119.206 36.4941L118.48 36.9794L119.207 38.069L118.214 38.6272L119.305 39.4744L119.767 40.6369L121.197 41.6773L121.488 42.7432L123.964 47.0778L123.988 48.2166L126.146 50.3466L126.438 51.4125L128.449 51.4349L128.764 52.0641L128.16 53.5181L127.072 55.8206L126.322 56.742L126.346 57.8808L125.645 59.5049L126.107 60.6674L126.035 61.9756L124.872 62.4372L124.146 62.9225L124.511 64.2551L123.64 65.782L124.488 66.266L125.386 67.4522L127.614 66.699L129.43 65.4861L130.74 67.1326L130.694 69.5796L130.695 71.1545L132.126 73.7697L132.637 75.6349L131.887 76.5563L132.348 77.7188L133.003 78.5417L134.481 78.7099L135.404 81.0349L134.944 81.4473L135.406 82.6097L135.261 83.652L135.746 84.3784L136.789 84.5229L138.412 83.6495L141.417 84.6886L141.901 83.8401L142.87 83.718L144.154 84.2257L146.335 84.3447L146.916 84.9017L147.982 84.6101L149.703 85.1415L149.944 83.9298L150.694 83.0085L152.002 83.0801L152.683 85.0418L153.992 86.6884L155.149 79.9278L162.782 81.1327L173.105 82.7468L181.44 83.9024L191.86 85.3471L200.292 86.3333L207.513 87.0783L214.903 87.92L221.954 88.5679L222.124 88.6644L223.178 75.7739L224.042 66.3732L225.098 55.06L225.819 48.2752L227.115 34.1729H227.118Z"/><path fill="#01A3C6" d="M0.720415 360.599L0.721039 360.245L0.583984 360.297L0.714809 360.599H0.720415ZM4.39783 360.415L4.5922 360.201L4.43085 360.09L4.39783 360.415ZM7.19 361.061L7.35446 360.982L7.30026 360.954L7.18937 361.061H7.19ZM4.89745 359.825L4.87503 359.525L4.71181 359.523L4.89745 359.825ZM9.72737 360.695L9.64451 360.748L9.6713 360.776L9.72674 360.695L9.72737 360.695ZM5.95838 359.706L6.04684 359.3L5.96461 359.325L5.96398 359.706L5.95838 359.706ZM11.9427 358.256L10.6905 358.452L8.06714 360.695L9.0477 360.629L12.119 359.265L11.9452 358.256H11.9427ZM18.0441 357.95L18.074 357.787L17.9662 357.731L18.0441 357.95ZM16.2306 357.348L14.8376 357.651L14.9728 359.341L13.7119 359.891L17.208 359.16L17.5862 357.724L16.4904 358.141L16.2318 357.347L16.2306 357.348ZM20.7366 358.049L20.2488 357.905L20.5708 358.183L20.7366 358.049ZM21.7159 358.066L20.9297 357.89L20.8188 357.997L21.7159 358.066ZM19.0383 357.069L18.2478 357.137L19.576 357.459L19.0383 357.069ZM22.3469 357.75L22.2672 357.64L21.9663 357.717L22.3469 357.75ZM20.2114 356.871L19.9142 356.73L19.9273 357.574L20.2114 356.871ZM29.2981 358.684L29.2445 358.628L29.1355 358.626L29.2981 358.684ZM29.49 358.605L29.4912 358.523L29.3573 358.413L29.49 358.605ZM28.2733 358.122L28.4315 358.424L28.406 358.342L28.2733 358.122ZM28.9262 358.133L28.2764 357.932L29.0557 358.517L28.9262 358.133ZM29.8924 357.333L29.837 357.387L29.8369 357.441L29.8924 357.333ZM38.3356 358.591L38.287 358.237L38.1773 358.289L38.3356 358.591ZM115.852 362.996L115.746 362.803L115.771 362.94L115.852 362.996ZM28.7231 355.682L28.6963 355.655L28.6689 355.681L28.7231 355.682ZM118.101 362.081L118.313 362.438L118.449 362.44L118.101 362.081ZM39.2451 357.818L39.189 357.926L39.1579 358.17L39.2457 357.818L39.2451 357.818ZM30.397 356.364L30.5988 355.686L30.4905 355.657L30.397 356.364ZM122.522 361.339L121.838 361.572L122.322 361.962L122.523 361.339L122.522 361.339ZM31.7364 355.951L31.6579 355.759L31.709 355.95L31.7364 355.951ZM26.3763 354.255L24.5454 354.687L22.8154 355.61L22.902 356.945L24.7111 356.186L26.9706 354.51L26.3763 354.255ZM39.1442 357.273L38.7293 357.674L39.1118 357.598L39.1442 357.273ZM122.635 360.96L122.559 360.632L122.448 360.739L122.635 360.961V360.96ZM32.3475 355.172L31.8317 355.082L32.3133 355.579L32.3475 355.172ZM117.82 360.797L117.6 360.875L117.644 361.529L117.82 360.797ZM33.5187 355.11L33.2459 355.159L33.5144 355.382L33.5187 355.11ZM38.7162 356.775L38.5256 356.772L38.3916 356.633L38.7156 356.775L38.7162 356.775ZM32.8939 355.045L32.5706 354.849L32.6758 355.068L32.8939 355.045ZM37.6677 355.996L37.0653 356.203L36.5271 357.446L37.6677 355.996ZM116.306 360.173L116.161 360.715L116.547 360.395L116.306 360.173ZM35.5309 355.089L35.8979 355.939L36.0511 354.907L35.5309 355.089ZM29.27 353.432L29.8444 353.252L29.7902 353.224L29.27 353.432ZM28.5704 352.958L28.4639 352.82L28.4359 352.874L28.5704 352.958ZM116.391 359.657L116.284 359.519L116.172 359.735L116.391 359.657ZM37.0055 354.648L36.8161 354.563L36.6498 354.751L37.0055 354.648ZM115.631 359.644L115.774 359.265L115.639 359.181L115.632 359.644L115.631 359.644ZM115.123 359.092L114.847 359.359L115.197 359.555L115.123 359.091V359.092ZM40.0737 353.586L39.8861 353.393L39.8861 353.447L40.0737 353.586ZM115.173 357.677L115.712 358.013L116.015 357.773L115.173 357.677ZM116.104 357.311L115.884 357.471L116.178 357.775L116.104 357.311L116.104 357.311ZM114.415 357.446L114.34 357.064L114.119 357.223L114.415 357.446V357.446ZM122.054 356.296L120.539 358.992L122.295 359.811L123.068 359.143L122.948 358.161L122.054 356.296ZM35.6979 351.306L35.6169 351.277L35.5621 351.303L35.6979 351.306ZM115.582 355.803L114.783 356.361L114.796 357.232L115.582 355.803ZM47.6714 352.948L47.677 352.595L47.5929 352.757L47.6714 352.948ZM118.198 355.384L117.943 355.978L119.202 355.564L118.198 355.384H118.198ZM114.941 354.839L115.833 358.474L116.4 358.755L118.325 360.828L119.652 362.838L120.383 363.041L119.619 361.504L119.806 360.091L119.495 359.161L117.581 356.489L116.219 354.942L114.942 354.839H114.941ZM44.807 351.567L44.7572 351.321L44.6201 351.373L44.807 351.567ZM117.62 354.15L117.058 355.229L117.688 354.967L117.62 354.15ZM47.2428 350.601L46.8354 350.54L46.4242 350.724L47.2428 350.602V350.601ZM54.6543 351.678L54.3192 352.19L54.4905 351.73L54.6543 351.678ZM55.7402 351.833L55.0867 351.849L55.3789 352.289L55.7402 351.833ZM11.7396 341.569L12.441 341.934L12.3351 341.769L11.7396 341.569ZM40.6269 348.885L40.6829 348.804L40.6001 348.857L40.6269 348.885ZM40.8461 348.807L40.9558 348.754L40.9558 348.727L40.8456 348.806L40.8461 348.807ZM116.743 352.339L116.798 353.892L117.621 353.552L116.743 352.339ZM42.8708 347.941L42.9537 347.888L42.9262 347.888L42.8708 347.941ZM113.56 352.257L112.359 352.427L113.212 353.503L113.253 355.899L114.134 355.288L114.052 353.68L113.559 352.257H113.56ZM114.096 351.096L113.913 352.236L115.298 354.028L115.382 352.287L116.649 352.989L116.185 351.43L115.663 351.72L114.095 351.097L114.096 351.096ZM108.906 350.6L108.203 351.977L109.006 351.146L108.906 350.6ZM50.1284 346.974L50.0761 346.865L50.1023 346.974L50.1297 346.974L50.1284 346.974ZM57.0864 347.526L56.9544 347.279L57.0304 347.606L57.0864 347.525V347.526ZM109.279 349.49L109.606 352.735L111.223 355.293L111.392 351.676L110.285 349.561L109.279 349.49ZM61.3669 345.366L61.1196 345.525L61.5239 345.749L61.3669 345.366ZM60.4137 345.405L60.5265 345.162L60.2543 345.157L60.4131 345.404L60.4137 345.405ZM59.7073 345.339L59.4818 345.798L57.5861 345.222L57.3437 348.32L56.5868 346.375L55.1901 346.896L54.5223 347.756L55.0873 349.779L55.9551 349.957L56.9226 349.075L55.7495 350.878L56.1258 351.157L57.3942 350.171L56.9942 349.675L58.1492 348.96L59.4014 348.872L61.2641 348.168L61.9058 347.226L60.985 346.966L61.4597 346.239L59.706 345.339H59.7073ZM106.499 346.668L106.016 346.252L106.007 346.742L106.498 346.668H106.499ZM59.2899 344.379L59.3385 344.734L59.8232 345.042L59.2899 344.379ZM108.15 345.417L106.562 345.935L107.003 347.221L106.586 347.759L108.163 349.473L108.162 347.922L110.261 349.318L107.883 346.693L109.745 347.676L109.882 345.991L108.149 345.418L108.15 345.417ZM107.2 345.265L107.039 345.1L106.956 345.18L107.2 345.266V345.265ZM111.859 344.935L111.32 344.599L111.123 345.032L111.859 344.935ZM108.595 344.826L108.108 344.682L108.106 344.791L108.595 344.826ZM110.343 344.502L111.912 349.89L112.337 347.284L113.424 347.383L112.45 345.435L111.033 345.547L110.343 344.502ZM61.1949 342.643L59.2955 343.917L60.0138 344.909L62.3356 344.404L62.52 343.158L61.1949 342.646V342.643ZM41.1788 338.578L41.1259 338.495L41.124 338.604L41.1788 338.578ZM40.3957 338.211L40.3478 337.83L40.3185 337.938L40.3957 338.211ZM63.1399 340.308L62.9754 340.387L62.9742 340.468L63.1399 340.308ZM62.4347 340.16L62.3543 340.077L62.1593 340.346L62.4347 340.161V340.16ZM64.2407 339.592L64.0519 339.48L64.0507 339.561L64.2407 339.592ZM64.84 339.575L64.6512 339.463L64.6232 339.517L64.84 339.575ZM63.8924 339.287L63.6214 339.228L63.5928 339.309L63.8924 339.287ZM78.8357 339.184L78.9478 338.996L78.7821 339.129L78.8357 339.184ZM83.713 337.225L84.7365 336.235L84.3808 336.366L83.713 337.225ZM74.5895 335.956L74.9203 335.717L75.0611 335.42L74.5895 335.956ZM74.7409 335.06L74.3833 335.3L74.929 335.2L74.7409 335.06ZM62.4309 333.956L62.3823 333.601L62.2465 333.6L62.4309 333.956ZM74.3858 335L74.0824 335.24L73.8594 335.562L74.3858 335ZM82.7679 335.004L82.8215 335.06L82.9037 335.034L82.7679 335.005V335.004ZM83.1753 335.039L82.9859 334.981L83.0121 335.035L83.1753 335.039ZM82.2253 334.887L82.3057 334.969L82.3069 334.888L82.2253 334.887ZM76.0516 334.62L76.3569 334.271L75.9974 334.619L76.0516 334.62ZM77.0689 333.984L74.8966 336.914L77.5536 334.291L77.0689 333.984ZM74.6449 334.079L74.5141 333.75L74.3484 333.911L74.6449 334.079ZM80.4156 334.04L80.3078 333.984L80.3614 334.039L80.4156 334.04ZM82.368 334.454L82.4577 333.965L82.2371 334.125L82.368 334.454ZM27.2223 325.282L23.5761 325.247L25.0077 327.503L26.0617 327.956L27.9095 328.123L27.2223 325.282ZM78.6301 333.492L78.7292 334.066L79.1198 333.5L78.6301 333.492ZM75.5887 333.087L75.1795 334.768L75.714 333.716L75.5881 333.087L75.5887 333.087ZM10.027 318.406L10.0862 318.135L10.0874 318.081L10.0276 318.407L10.027 318.406ZM75.0094 331.826L75.0324 332.071L75.1957 332.074L75.0094 331.826ZM74.5415 332.145L74.4419 331.599L74.2487 331.759L74.5415 332.145ZM78.2252 331.58L78.2308 331.281L78.0109 331.414L78.2258 331.581L78.2252 331.58ZM74.8374 330.734L74.7982 331.468L75.0785 330.983L74.8381 330.734L74.8374 330.734ZM69.1746 329.17L69.2606 328.926L69.2058 328.925L69.1746 329.169V329.17ZM29.7155 317.594L29.8868 317.134L29.8039 317.187L29.7155 317.594ZM30.0276 316.837L29.8662 316.726L29.865 316.807L30.0276 316.837ZM33.4091 314.798L33.411 314.689L33.3842 314.662L33.4091 314.798ZM33.4421 314.445L33.3904 314.28L33.363 314.307L33.4421 314.445ZM34.8656 312.319L34.8936 312.265L34.7572 312.289L34.8656 312.319ZM35.3266 312.435L34.9752 312.293L35.0008 312.375L35.3266 312.435ZM34.8425 312.101L34.8444 311.965L34.7335 312.099L34.8425 312.101ZM22.3021 308.651L22.2267 308.269L22.1214 308.05L22.3021 308.651ZM23.525 307.121L23.5511 307.175L23.6589 307.232L23.525 307.121ZM21.3253 306.839L20.739 306.095L21.22 306.647L21.3259 306.84L21.3253 306.839ZM20.0401 305.593L19.9578 305.619L20.1746 305.677L20.0401 305.593V305.593ZM20.0843 304.587L20.0575 304.587L20.2195 304.671L20.0849 304.587L20.0843 304.587ZM40.9134 310.543L40.0413 310.611L40.5533 310.892L40.9128 310.544L40.9134 310.543ZM19.1822 303.211L18.2303 304.801L18.6234 305.706L20.5808 305.847L22.4161 308.382L25.1366 308.455L24.7678 307.741L22.3731 306.095L21.8261 304.644L20.5142 304.976L19.1822 303.211ZM33.0559 303.58L33.0851 303.444L33.0303 303.471L33.0565 303.58L33.0559 303.58ZM28.9841 294.859L28.8763 294.775L28.9287 294.885L28.9835 294.859H28.9841ZM31.3664 295.634L31.6137 295.502L31.5321 295.5L31.3664 295.634ZM33.0359 295.09L33.2552 295.013L33.9953 294.699L33.0359 295.09ZM35.9377 294.077L36.076 293.944L35.8835 294.049L35.9377 294.077ZM36.3476 293.975L36.7875 293.711L36.3769 293.839L36.3476 293.975ZM37.5263 293.478L37.117 293.553L37.1432 293.608L37.5263 293.478ZM92.4059 281.498L92.1393 281.167L91.5743 280.776L92.4059 281.498ZM47.6216 275.872L48.429 274.797L47.9867 275.198L47.6216 275.872V275.872ZM48.7043 274.611L49.0937 274.128L48.9012 274.234L48.7043 274.611ZM49.2874 273.914L49.8132 273.378L49.483 273.59L49.2874 273.914ZM76.5282 275.65L76.9562 276.093L77.1468 276.097L76.5282 275.65ZM62.8489 268.562L60.2225 270.994L59.1528 271.493L57.0603 271.295L56.9874 270.777L54.8462 271.857L55.0057 273.711L54.4357 273.62L55.0854 272.188L51.8771 273.604L50.8804 272.989L47.9225 275.715L46.7089 278.28L44.2881 279.818L42.3569 279.758L40.2443 279.124L38.1836 281.92L39.9459 283.937L42.3637 287.461L42.5051 290.375L46.9095 292.082L46.0916 293.81L46.8348 294.938L47.5767 294.515L49.5204 295.446L47.7188 295.769L45.8573 294.786L46.6167 296.567L45.1309 297.523L40.2126 295.426L41.514 294.114L40.6057 293.092L36.8927 293.765L31.3346 295.74L31.7626 297.761L34.4002 299.52L32.8715 299.793L33.0316 301.619L34.8986 303.882L35.7596 304.469L37.5886 304.145L39.9366 305.328L40.9122 305.562L40.8443 306.35L41.813 305.386L43.4545 304.869L43.8177 304.304L44.736 304.727L45.3465 304.03L45.9421 305.836L45.2244 306.45L44.4955 306.111L43.9392 306.837L44.7547 306.878L45.0581 309.877L44.5759 311.039L40.9838 311.006L41.0056 311.333L39.1024 312.853L36.7059 312.949L36.5389 311.557L35.4506 311.539L35.4344 312.492L34.3454 312.501L33.7505 315.511L33.2452 314.822L30.4587 317.062L30.6618 317.936L29.6569 317.81L29.5878 321.919L30.9932 322.514L30.3889 322.858L31.813 323.943L34.3834 324.83L33.6034 325.905L33.5667 324.87L32.4752 325.042L31.5483 323.503L29.1835 324.933L30.321 325.251L29.8718 326.06L32.175 329.909L34.3217 330.108L35.8243 329.78L36.6099 328.378L37.2011 328.823L37.1363 331.054L37.4871 332.856L36.3688 334.607L36.7152 336.654L35.2394 337.01L36.3975 337.737L40.6723 335.986L41.8716 337.502L42.7119 337.707L43.4626 340.006L44.3622 339.911L44.1996 338.249L46.1115 339.479L49.2837 338.579L50.339 337.317L49.0775 339.501L47.7256 340.594L47.9493 341.853L47.0946 342.491L46.3968 345.147L44.3927 346.175L43.0645 347.486L40.4524 349.075L39.607 349.17L37.1301 350.816L37.2298 352.995L34.2906 351.367L31.5296 352.111L28.7443 354.269L27.6192 354.821L27.1949 355.767L29.6744 355.618L30.1067 354.183L30.3864 355.357L33.0085 353.17L33.7959 353.292L33.2079 354.289L36.0492 353.629L36.3383 354.26L38.1293 352.93L40.0587 353.098L43.5318 350.489L46.7899 349.346L49.7814 347.872L51.0399 345.934L52.5244 345.06L53.0352 345.45L55.514 343.695L56.0292 343.813L59.098 340.952L59.3372 339.677L57.7449 338.861L58.2084 337.208L59.9764 335.632L61.9182 333.433L61.5426 333.127L63.1019 332.664L65.6062 329.494L68.0495 328.229L69.8941 328.586L69.6144 329.044L70.7134 330.042L69.5652 330.349L68.7348 329.546L65.8249 331.049L65.9613 332.657L64.65 334.567L64.1042 336.273L65.0343 337.595L64.4637 337.558L64.027 339.238L65.6336 339.183L69.9814 336.344L70.8398 335.46L73.2327 335.582L74.0612 334.862L74.8817 332.998L73.6357 332.759L74.2718 332.144L74.0444 331.106L74.5272 329.916L75.7887 330.972L75.9632 330.295L77.9729 330.546L79.5197 332.421L80.2841 332.271L80.7787 333.613L81.9655 334.259L83.2806 333.737L82.8595 334.519L85.2274 336.138L88.5534 335.785L91.3973 336.622L92.3661 335.658L93.7453 337.804L96.5014 337.36L97.0508 338.676L96.5038 338.83L98.2307 339.73L101.887 342.431L102.845 343.727L104.216 344.756L105.783 345.409L107.136 344.234L104.696 342.07L106.897 342.27L107.565 344.649L108.44 344.392L109.982 344.935L108.64 340.586L109.018 340.782L108.724 338.818L109.573 341.772L110.467 343.638L112.291 345.219L112.732 344.845L113.625 346.793L115.5 346.879L115.557 348.322L114.748 347.928L114.931 349.945L115.787 350.885L119.566 354.35L119.52 357.098L120.09 358.822L120.396 356.787L122.043 355.943L123.078 357.539L123.545 362.119L124.554 362L125.904 359.437L125.451 355.62L125.24 355.208L120.867 353.202L119.97 353.132L118.931 351.808L118.675 350.824L115.574 345.901L113.102 342.375L111.781 341.591L109.457 338.994L109.044 337.626L108.346 337.07L105.728 338.986L104.774 340.711L103.071 341.608L102.658 340.322L99.8723 337.635L99.5583 336.868L98.2419 335.838L96.0179 335.393L94.9115 334.83L93.3622 334.695L93.2152 281.811L92.3175 281.769L89.3658 279.243L88.6357 278.958L84.3534 279.539L83.2831 278.46L80.6461 278.306L79.3222 277.74L76.061 275.865L72.4652 276.049L70.9196 275.697L71.4472 275.052L69.8699 274.971L70.0947 272.907L67.4346 272.481L65.9071 272.673L65.7987 271.011L65.2063 270.647L63.1579 272.681L64.2214 270.93L62.8458 268.567L62.8489 268.562Z"/><path stroke="#fff" stroke-linejoin="round" stroke-width="1.168" d="M80.7395 334.209L80.7121 334.209M20.2457 304.699L20.2189 304.671M38.0453 293.378L37.991 293.377M0.720415 360.599L0.721039 360.245L0.583984 360.297L0.714809 360.599H0.720415ZM4.39783 360.415L4.5922 360.201L4.43085 360.09L4.39783 360.415ZM7.19 361.061L7.35446 360.982L7.30026 360.954L7.18937 361.061H7.19ZM4.89745 359.825L4.87503 359.525L4.71181 359.523L4.89745 359.825ZM9.72737 360.695L9.64451 360.748L9.6713 360.776L9.72674 360.695L9.72737 360.695ZM5.95838 359.706L6.04684 359.3L5.96461 359.325L5.96398 359.706L5.95838 359.706ZM11.9427 358.256L10.6905 358.452L8.06714 360.695L9.0477 360.629L12.119 359.265L11.9452 358.256H11.9427ZM18.0441 357.95L18.074 357.787L17.9662 357.731L18.0441 357.95ZM16.2306 357.348L14.8376 357.651L14.9728 359.341L13.7119 359.891L17.208 359.16L17.5862 357.724L16.4904 358.141L16.2318 357.347L16.2306 357.348ZM20.7366 358.049L20.2488 357.905L20.5708 358.183L20.7366 358.049ZM21.7159 358.066L20.9297 357.89L20.8188 357.997L21.7159 358.066ZM19.0383 357.069L18.2478 357.137L19.576 357.459L19.0383 357.069ZM22.3469 357.75L22.2672 357.64L21.9663 357.717L22.3469 357.75ZM20.2114 356.871L19.9142 356.73L19.9273 357.574L20.2114 356.871ZM29.2981 358.684L29.2445 358.628L29.1355 358.626L29.2981 358.684ZM29.49 358.605L29.4912 358.523L29.3573 358.413L29.49 358.605ZM28.2733 358.122L28.4315 358.424L28.406 358.342L28.2733 358.122ZM28.9262 358.133L28.2764 357.932L29.0557 358.517L28.9262 358.133ZM29.8924 357.333L29.837 357.387L29.8369 357.441L29.8924 357.333ZM38.3356 358.591L38.287 358.237L38.1773 358.289L38.3356 358.591ZM115.852 362.996L115.746 362.803L115.771 362.94L115.852 362.996ZM28.7231 355.682L28.6963 355.655L28.6689 355.681L28.7231 355.682ZM118.101 362.081L118.313 362.438L118.449 362.44L118.101 362.081ZM39.2451 357.818L39.189 357.926L39.1579 358.17L39.2457 357.818L39.2451 357.818ZM30.397 356.364L30.5988 355.686L30.4905 355.657L30.397 356.364ZM122.522 361.339L121.838 361.572L122.322 361.962L122.523 361.339L122.522 361.339ZM31.7364 355.951L31.6579 355.759L31.709 355.95L31.7364 355.951ZM26.3763 354.255L24.5454 354.687L22.8154 355.61L22.902 356.945L24.7111 356.186L26.9706 354.51L26.3763 354.255ZM39.1442 357.273L38.7293 357.674L39.1118 357.598L39.1442 357.273ZM122.635 360.96L122.559 360.632L122.448 360.739L122.635 360.961V360.96ZM32.3475 355.172L31.8317 355.082L32.3133 355.579L32.3475 355.172ZM117.82 360.797L117.6 360.875L117.644 361.529L117.82 360.797ZM33.5187 355.11L33.2459 355.159L33.5144 355.382L33.5187 355.11ZM38.7162 356.775L38.5256 356.772L38.3916 356.633L38.7156 356.775L38.7162 356.775ZM32.8939 355.045L32.5706 354.849L32.6758 355.068L32.8939 355.045ZM37.6677 355.996L37.0653 356.203L36.5271 357.446L37.6677 355.996ZM116.306 360.173L116.161 360.715L116.547 360.395L116.306 360.173ZM35.5309 355.089L35.8979 355.939L36.0511 354.907L35.5309 355.089ZM29.27 353.432L29.8444 353.252L29.7902 353.224L29.27 353.432ZM28.5704 352.958L28.4639 352.82L28.4359 352.874L28.5704 352.958ZM116.391 359.657L116.284 359.519L116.172 359.735L116.391 359.657ZM37.0055 354.648L36.8161 354.563L36.6498 354.751L37.0055 354.648ZM115.631 359.644L115.774 359.265L115.639 359.181L115.632 359.644L115.631 359.644ZM115.123 359.092L114.847 359.359L115.197 359.555L115.123 359.091V359.092ZM40.0737 353.586L39.8861 353.393L39.8861 353.447L40.0737 353.586ZM115.173 357.677L115.712 358.013L116.015 357.773L115.173 357.677ZM116.104 357.311L115.884 357.471L116.178 357.775L116.104 357.311L116.104 357.311ZM114.415 357.446L114.34 357.064L114.119 357.223L114.415 357.446V357.446ZM122.054 356.296L120.539 358.992L122.295 359.811L123.068 359.143L122.948 358.161L122.054 356.296ZM35.6979 351.306L35.6169 351.277L35.5621 351.303L35.6979 351.306ZM115.582 355.803L114.783 356.361L114.796 357.232L115.582 355.803ZM47.6714 352.948L47.677 352.595L47.5929 352.757L47.6714 352.948ZM118.198 355.384L117.943 355.978L119.202 355.564L118.198 355.384H118.198ZM114.941 354.839L115.833 358.474L116.4 358.755L118.325 360.828L119.652 362.838L120.383 363.041L119.619 361.504L119.806 360.091L119.495 359.161L117.581 356.489L116.219 354.942L114.942 354.839H114.941ZM44.807 351.567L44.7572 351.321L44.6201 351.373L44.807 351.567ZM117.62 354.15L117.058 355.229L117.688 354.967L117.62 354.15ZM47.2428 350.601L46.8354 350.54L46.4242 350.724L47.2428 350.602V350.601ZM54.6543 351.678L54.3192 352.19L54.4905 351.73L54.6543 351.678ZM55.7402 351.833L55.0867 351.849L55.3789 352.289L55.7402 351.833ZM11.7396 341.569L12.441 341.934L12.3351 341.769L11.7396 341.569ZM40.6269 348.885L40.6829 348.804L40.6001 348.857L40.6269 348.885ZM40.8461 348.807L40.9558 348.754L40.9558 348.727L40.8456 348.806L40.8461 348.807ZM116.743 352.339L116.798 353.892L117.621 353.552L116.743 352.339ZM42.8708 347.941L42.9537 347.888L42.9262 347.888L42.8708 347.941ZM113.56 352.257L112.359 352.427L113.212 353.503L113.253 355.899L114.134 355.288L114.052 353.68L113.559 352.257H113.56ZM114.096 351.096L113.913 352.236L115.298 354.028L115.382 352.287L116.649 352.989L116.185 351.43L115.663 351.72L114.095 351.097L114.096 351.096ZM108.906 350.6L108.203 351.977L109.006 351.146L108.906 350.6ZM50.1284 346.974L50.0761 346.865L50.1023 346.974L50.1297 346.974L50.1284 346.974ZM57.0864 347.526L56.9544 347.279L57.0304 347.606L57.0864 347.525V347.526ZM109.279 349.49L109.606 352.735L111.223 355.293L111.392 351.676L110.285 349.561L109.279 349.49ZM61.3669 345.366L61.1196 345.525L61.5239 345.749L61.3669 345.366ZM60.4137 345.405L60.5265 345.162L60.2543 345.157L60.4131 345.404L60.4137 345.405ZM59.7073 345.339L59.4818 345.798L57.5861 345.222L57.3437 348.32L56.5868 346.375L55.1901 346.896L54.5223 347.756L55.0873 349.779L55.9551 349.957L56.9226 349.075L55.7495 350.878L56.1258 351.157L57.3942 350.171L56.9942 349.675L58.1492 348.96L59.4014 348.872L61.2641 348.168L61.9058 347.226L60.985 346.966L61.4597 346.239L59.706 345.339H59.7073ZM106.499 346.668L106.016 346.252L106.007 346.742L106.498 346.668H106.499ZM59.2899 344.379L59.3385 344.734L59.8232 345.042L59.2899 344.379ZM108.15 345.417L106.562 345.935L107.003 347.221L106.586 347.759L108.163 349.473L108.162 347.922L110.261 349.318L107.883 346.693L109.745 347.676L109.882 345.991L108.149 345.418L108.15 345.417ZM107.2 345.265L107.039 345.1L106.956 345.18L107.2 345.266V345.265ZM111.859 344.935L111.32 344.599L111.123 345.032L111.859 344.935ZM108.595 344.826L108.108 344.682L108.106 344.791L108.595 344.826ZM110.343 344.502L111.912 349.89L112.337 347.284L113.424 347.383L112.45 345.435L111.033 345.547L110.343 344.502ZM61.1949 342.643L59.2955 343.917L60.0138 344.909L62.3356 344.404L62.52 343.158L61.1949 342.646V342.643ZM41.1788 338.578L41.1259 338.495L41.124 338.604L41.1788 338.578ZM40.3957 338.211L40.3478 337.83L40.3185 337.938L40.3957 338.211ZM63.1399 340.308L62.9754 340.387L62.9742 340.468L63.1399 340.308ZM62.4347 340.16L62.3543 340.077L62.1593 340.346L62.4347 340.161V340.16ZM64.2407 339.592L64.0519 339.48L64.0507 339.561L64.2407 339.592ZM64.84 339.575L64.6512 339.463L64.6232 339.517L64.84 339.575ZM63.8924 339.287L63.6214 339.228L63.5928 339.309L63.8924 339.287ZM78.8357 339.184L78.9478 338.996L78.7821 339.129L78.8357 339.184ZM83.713 337.225L84.7365 336.235L84.3808 336.366L83.713 337.225ZM74.5895 335.956L74.9203 335.717L75.0611 335.42L74.5895 335.956ZM74.7409 335.06L74.3833 335.3L74.929 335.2L74.7409 335.06ZM62.4309 333.956L62.3823 333.601L62.2465 333.6L62.4309 333.956ZM74.3858 335L74.0824 335.24L73.8594 335.562L74.3858 335ZM82.7679 335.004L82.8215 335.06L82.9037 335.034L82.7679 335.005V335.004ZM83.1753 335.039L82.9859 334.981L83.0121 335.035L83.1753 335.039ZM82.2253 334.887L82.3057 334.969L82.3069 334.888L82.2253 334.887ZM76.0516 334.62L76.3569 334.271L75.9974 334.619L76.0516 334.62ZM77.0689 333.984L74.8966 336.914L77.5536 334.291L77.0689 333.984ZM74.6449 334.079L74.5141 333.75L74.3484 333.911L74.6449 334.079ZM80.4156 334.04L80.3078 333.984L80.3614 334.039L80.4156 334.04ZM82.368 334.454L82.4577 333.965L82.2371 334.125L82.368 334.454ZM27.2223 325.282L23.5761 325.247L25.0077 327.503L26.0617 327.956L27.9095 328.123L27.2223 325.282ZM78.6301 333.492L78.7292 334.066L79.1198 333.5L78.6301 333.492ZM75.5887 333.087L75.1795 334.768L75.714 333.716L75.5881 333.087L75.5887 333.087ZM10.027 318.406L10.0862 318.135L10.0874 318.081L10.0276 318.407L10.027 318.406ZM75.0094 331.826L75.0324 332.071L75.1957 332.074L75.0094 331.826ZM74.5415 332.145L74.4419 331.599L74.2487 331.759L74.5415 332.145ZM78.2252 331.58L78.2308 331.281L78.0109 331.414L78.2258 331.581L78.2252 331.58ZM74.8374 330.734L74.7982 331.468L75.0785 330.983L74.8381 330.734L74.8374 330.734ZM69.1746 329.17L69.2606 328.926L69.2058 328.925L69.1746 329.169V329.17ZM29.7155 317.594L29.8868 317.134L29.8039 317.187L29.7155 317.594ZM30.0276 316.837L29.8662 316.726L29.865 316.807L30.0276 316.837ZM33.4091 314.798L33.411 314.689L33.3842 314.662L33.4091 314.798ZM33.4421 314.445L33.3904 314.28L33.363 314.307L33.4421 314.445ZM34.8656 312.319L34.8936 312.265L34.7572 312.289L34.8656 312.319ZM35.3266 312.435L34.9752 312.293L35.0008 312.375L35.3266 312.435ZM34.8425 312.101L34.8444 311.965L34.7335 312.099L34.8425 312.101ZM22.3021 308.651L22.2267 308.269L22.1214 308.05L22.3021 308.651ZM23.525 307.121L23.5511 307.175L23.6589 307.232L23.525 307.121ZM21.3253 306.839L20.739 306.095L21.22 306.647L21.3259 306.84L21.3253 306.839ZM20.0401 305.593L19.9578 305.619L20.1746 305.677L20.0401 305.593V305.593ZM20.0843 304.587L20.0575 304.587L20.2195 304.671L20.0849 304.587L20.0843 304.587ZM40.9134 310.543L40.0413 310.611L40.5533 310.892L40.9128 310.544L40.9134 310.543ZM19.1822 303.211L18.2303 304.801L18.6234 305.706L20.5808 305.847L22.4161 308.382L25.1366 308.455L24.7678 307.741L22.3731 306.095L21.8261 304.644L20.5142 304.976L19.1822 303.211ZM33.0559 303.58L33.0851 303.444L33.0303 303.471L33.0565 303.58L33.0559 303.58ZM28.9841 294.859L28.8763 294.775L28.9287 294.885L28.9835 294.859H28.9841ZM31.3664 295.634L31.6137 295.502L31.5321 295.5L31.3664 295.634ZM33.0359 295.09L33.2552 295.013L33.9953 294.699L33.0359 295.09ZM35.9377 294.077L36.076 293.944L35.8835 294.049L35.9377 294.077ZM36.3476 293.975L36.7875 293.711L36.3769 293.839L36.3476 293.975ZM37.5263 293.478L37.117 293.553L37.1432 293.608L37.5263 293.478ZM92.4059 281.498L92.1393 281.167L91.5743 280.776L92.4059 281.498ZM47.6216 275.872L48.429 274.797L47.9867 275.198L47.6216 275.872V275.872ZM48.7043 274.611L49.0937 274.128L48.9012 274.234L48.7043 274.611ZM49.2874 273.914L49.8132 273.378L49.483 273.59L49.2874 273.914ZM76.5282 275.65L76.9562 276.093L77.1468 276.097L76.5282 275.65ZM62.8489 268.562L60.2225 270.994L59.1528 271.493L57.0603 271.295L56.9874 270.777L54.8462 271.857L55.0057 273.711L54.4357 273.62L55.0854 272.188L51.8771 273.604L50.8804 272.989L47.9225 275.715L46.7089 278.28L44.2881 279.818L42.3569 279.758L40.2443 279.124L38.1836 281.92L39.9459 283.937L42.3637 287.461L42.5051 290.375L46.9095 292.082L46.0916 293.81L46.8348 294.938L47.5767 294.515L49.5204 295.446L47.7188 295.769L45.8573 294.786L46.6167 296.567L45.1309 297.523L40.2126 295.426L41.514 294.114L40.6057 293.092L36.8927 293.765L31.3346 295.74L31.7626 297.761L34.4002 299.52L32.8715 299.793L33.0316 301.619L34.8986 303.882L35.7596 304.469L37.5886 304.145L39.9366 305.328L40.9122 305.562L40.8443 306.35L41.813 305.386L43.4545 304.869L43.8177 304.304L44.736 304.727L45.3465 304.03L45.9421 305.836L45.2244 306.45L44.4955 306.111L43.9392 306.837L44.7547 306.878L45.0581 309.877L44.5759 311.039L40.9838 311.006L41.0056 311.333L39.1024 312.853L36.7059 312.949L36.5389 311.557L35.4506 311.539L35.4344 312.492L34.3454 312.501L33.7505 315.511L33.2452 314.822L30.4587 317.062L30.6618 317.936L29.6569 317.81L29.5878 321.919L30.9932 322.514L30.3889 322.858L31.813 323.943L34.3834 324.83L33.6034 325.905L33.5667 324.87L32.4752 325.042L31.5483 323.503L29.1835 324.933L30.321 325.251L29.8718 326.06L32.175 329.909L34.3217 330.108L35.8243 329.78L36.6099 328.378L37.2011 328.823L37.1363 331.054L37.4871 332.856L36.3688 334.607L36.7152 336.654L35.2394 337.01L36.3975 337.737L40.6723 335.986L41.8716 337.502L42.7119 337.707L43.4626 340.006L44.3622 339.911L44.1996 338.249L46.1115 339.479L49.2837 338.579L50.339 337.317L49.0775 339.501L47.7256 340.594L47.9493 341.853L47.0946 342.491L46.3968 345.147L44.3927 346.175L43.0645 347.486L40.4524 349.075L39.607 349.17L37.1301 350.816L37.2298 352.995L34.2906 351.367L31.5296 352.111L28.7443 354.269L27.6192 354.821L27.1949 355.767L29.6744 355.618L30.1067 354.183L30.3864 355.357L33.0085 353.17L33.7959 353.292L33.2079 354.289L36.0492 353.629L36.3383 354.26L38.1293 352.93L40.0587 353.098L43.5318 350.489L46.7899 349.346L49.7814 347.872L51.0399 345.934L52.5244 345.06L53.0352 345.45L55.514 343.695L56.0292 343.813L59.098 340.952L59.3372 339.677L57.7449 338.861L58.2084 337.208L59.9764 335.632L61.9182 333.433L61.5426 333.127L63.1019 332.664L65.6062 329.494L68.0495 328.229L69.8941 328.586L69.6144 329.044L70.7134 330.042L69.5652 330.349L68.7348 329.546L65.8249 331.049L65.9613 332.657L64.65 334.567L64.1042 336.273L65.0343 337.595L64.4637 337.558L64.027 339.238L65.6336 339.183L69.9814 336.344L70.8398 335.46L73.2327 335.582L74.0612 334.862L74.8817 332.998L73.6357 332.759L74.2718 332.144L74.0444 331.106L74.5272 329.916L75.7887 330.972L75.9632 330.295L77.9729 330.546L79.5197 332.421L80.2841 332.271L80.7787 333.613L81.9655 334.259L83.2806 333.737L82.8595 334.519L85.2274 336.138L88.5534 335.785L91.3973 336.622L92.3661 335.658L93.7453 337.804L96.5014 337.36L97.0508 338.676L96.5038 338.83L98.2307 339.73L101.887 342.431L102.845 343.727L104.216 344.756L105.783 345.409L107.136 344.234L104.696 342.07L106.897 342.27L107.565 344.649L108.44 344.392L109.982 344.935L108.64 340.586L109.018 340.782L108.724 338.818L109.573 341.772L110.467 343.638L112.291 345.219L112.732 344.845L113.625 346.793L115.5 346.879L115.557 348.322L114.748 347.928L114.931 349.945L115.787 350.885L119.566 354.35L119.52 357.098L120.09 358.822L120.396 356.787L122.043 355.943L123.078 357.539L123.545 362.119L124.554 362L125.904 359.437L125.451 355.62L125.24 355.208L120.867 353.202L119.97 353.132L118.931 351.808L118.675 350.824L115.574 345.901L113.102 342.375L111.781 341.591L109.457 338.994L109.044 337.626L108.346 337.07L105.728 338.986L104.774 340.711L103.071 341.608L102.658 340.322L99.8723 337.635L99.5583 336.868L98.2419 335.838L96.0179 335.393L94.9115 334.83L93.3622 334.695L93.2152 281.811L92.3175 281.769L89.3658 279.243L88.6357 278.958L84.3534 279.539L83.2831 278.46L80.6461 278.306L79.3222 277.74L76.061 275.865L72.4652 276.049L70.9196 275.697L71.4472 275.052L69.8699 274.971L70.0947 272.907L67.4346 272.481L65.9071 272.673L65.7987 271.011L65.2063 270.647L63.1579 272.681L64.2214 270.93L62.8458 268.567L62.8489 268.562Z"/></g><defs><clipPath id="clip0_4200_572"><rect width="307" height="364" fill="#fff" transform="translate(0 -0.0069809)"/></clipPath></defs></svg>