<svg xmlns="http://www.w3.org/2000/svg" width="1500" height="457" fill="none" viewBox="0 0 1500 457"><path fill="#0C1937" fill-rule="evenodd" d="M72.7865 0.11233C75.2577 0.11233 79.189 0.673978 81.6602 1.46029C84.019 2.13426 87.7257 4.26853 89.9722 6.17814C92.2187 8.08774 95.1392 12.1316 96.5994 15.1645C98.0596 18.4221 99.1829 22.9153 99.1829 25.8358C99.1829 28.6441 98.0596 33.1373 96.824 35.9455C95.5885 38.7538 93.4543 42.236 92.1064 43.6963C90.7585 45.1566 87.0518 47.5155 84.019 48.9758C80.8739 50.436 76.3809 51.6717 73.9098 51.6717C71.4386 51.6717 67.3949 50.9977 64.9238 50.3237C62.3403 49.5374 58.2966 46.8415 55.3762 43.8086C52.3434 40.888 49.6476 36.8442 48.8613 34.2606C48.1874 31.7893 47.5134 27.9701 47.5134 25.8358C47.5134 23.7016 48.1874 19.8824 48.8613 17.4111C49.6476 14.8275 52.3434 10.7837 55.3762 7.86308C58.1843 5.05484 62.228 2.13426 64.3622 1.46029C66.4963 0.786308 70.3154 0.224659 72.7865 0.11233V0.11233ZM893.881 0.786308C896.914 1.1233 900.958 2.13426 902.755 3.14523C904.552 4.26853 907.023 6.51512 908.371 8.20007C910.73 11.3453 910.73 12.2439 911.853 177.369L969.701 146.478C1001.49 129.516 1029.57 115.138 1032.04 114.464C1034.51 113.79 1040.13 113.453 1044.62 113.565C1051.36 113.902 1053.38 114.576 1057.43 117.385C1060.35 119.407 1063.38 122.889 1065.06 126.371C1066.75 129.741 1068.1 134.459 1068.32 138.166C1068.66 143.22 1068.21 145.467 1065.51 150.522C1063.15 154.903 1060.68 157.711 1056.75 160.407C1053.61 162.429 1049.11 164.338 1046.64 164.788C1042.71 165.349 1040.35 164.563 1028.67 159.171C1021.26 155.689 1013.17 152.431 1010.7 151.757C1008.23 151.083 1002.72 150.522 998.344 150.522C993.963 150.522 987.448 151.308 983.741 152.207C980.035 153.218 974.081 155.127 970.487 156.475C965.769 158.273 964.197 159.396 964.758 160.632C965.095 161.53 991.604 199.947 1023.62 246.002C1066.97 308.233 1082.81 330.249 1085.62 331.822C1087.64 333.058 1092.25 334.293 1095.84 334.63C1102.24 335.304 1102.24 335.304 1102.24 342.606L1078.32 342.381C1055.4 342.044 1054.28 341.932 1048.89 339.236C1045.86 337.663 1041.36 334.406 1038.78 331.934C1036.31 329.351 1019.69 306.66 1001.71 281.386C983.854 255.999 959.928 222.301 928.14 177.481L911.292 187.029V342.606H871.978L871.641 184.782C871.416 28.7564 871.416 26.9591 869.17 24.7125C867.597 23.0276 865.463 22.2413 862.43 22.2413C859.173 22.2413 855.242 23.7016 848.39 27.4085C843.111 30.2167 838.168 32.5756 837.382 32.5756C836.596 32.5756 836.034 31.003 836.034 24.1509L856.59 13.2549C868.833 6.73978 879.279 1.90961 882.649 1.23563C885.682 0.673978 890.736 0.449319 893.881 0.786308V0.786308ZM1158.97 0.11233C1163.12 0.11233 1167.39 0.786308 1170.2 2.02194C1172.67 3.14523 1176.6 6.29047 1178.96 9.09871C1181.66 12.2439 1183.57 16.0632 1184.35 19.6577C1185.36 23.8139 1185.36 26.7345 1184.35 30.8907C1183.57 34.4852 1181.66 38.3044 1178.85 41.4497C1176.6 44.1456 1172.67 47.4031 1170.2 48.6388C1167.39 49.9867 1163.35 50.8854 1159.53 50.8854C1155.15 50.8854 1151.78 50.2114 1147.85 48.1895C1144.82 46.7292 1140.88 43.6963 1139.2 41.562C1137.51 39.4277 1135.6 36.2825 1134.93 34.5976C1134.26 32.8003 1133.7 28.7564 1133.7 25.6112C1133.7 21.5673 1134.59 17.8604 1136.39 14.0412C1137.85 11.0083 1140.77 7.07677 1142.91 5.39183C1144.93 3.81921 1147.85 1.90961 1149.42 1.34796C1150.99 0.673978 1155.26 0.11233 1158.97 0.11233V0.11233ZM1460.34 0C1464.15 0 1468.54 0.561649 1470.11 1.1233C1471.68 1.79728 1475.05 4.1562 1477.63 6.51512C1480.1 8.76172 1483.14 12.6933 1484.26 15.1645C1485.38 17.6358 1486.4 22.2413 1486.4 25.2742C1486.4 28.4194 1485.38 32.9126 1484.26 35.3839C1483.14 37.8551 1480.55 41.562 1478.42 43.6963C1476.29 45.8305 1472.8 48.3018 1470.67 49.2004C1468.54 50.0991 1464.15 50.8854 1461.12 50.8854C1457.98 50.8854 1453.71 50.3237 1451.57 49.6497C1449.44 48.8634 1445.51 46.1675 1442.93 43.5839C1440.34 40.888 1437.42 36.8442 1436.41 34.5976C1435.51 32.2386 1434.73 28.4194 1434.73 26.1728C1434.73 23.8139 1435.29 19.9947 1435.85 17.7481C1436.52 15.3892 1438.88 11.3453 1441.13 8.87405C1443.49 6.29047 1447.19 3.25756 1449.33 2.13426C1451.91 0.786308 1455.73 0.11233 1460.22 0H1460.34ZM167.701 57.2882H320.575L320.014 65.7129H168.375L167.701 57.2882ZM73.7974 114.576C78.7397 114.576 82.7834 115.25 85.4792 116.598C87.7257 117.609 90.5339 119.968 91.6571 121.878C93.6789 125.135 93.679 131.426 93.1173 404.949L90.6462 413.935C89.186 418.878 86.4902 426.179 84.4683 430.223C82.5588 434.267 78.4028 440.108 75.2577 443.253C72.1126 446.398 66.6087 450.33 62.7896 452.015C58.8582 453.924 52.4557 455.609 47.0641 456.396C38.9767 457.407 37.2919 457.294 29.6538 454.935C22.2403 452.689 20.4431 451.566 13.816 444.938C8.87367 440.108 5.16694 435.165 3.1451 430.785C0.898599 425.842 0.112325 422.247 0 417.305C0 412.699 0.786274 409.217 2.35882 406.072C3.5944 403.601 6.62717 399.894 8.98599 397.872C11.4571 395.85 15.3885 393.716 17.8597 393.042C20.3308 392.368 24.9361 392.031 27.9689 392.255C31.3386 392.48 35.7193 393.94 38.9767 395.738C42.0095 397.535 45.6039 400.792 47.2888 403.601C49.8722 407.42 50.5462 410.228 51.2201 418.99C51.7818 424.831 52.905 431.795 53.8036 434.491C55.0392 437.861 56.3871 439.546 58.6336 440.333C60.9924 441.231 62.565 441.007 65.5977 439.546C67.7319 438.423 70.6523 435.727 72.1126 433.593C73.5728 431.459 75.2577 427.639 76.0439 425.168C76.7179 422.697 77.2795 414.384 77.3918 406.634C77.3918 396.187 76.9425 390.907 75.37 385.853C74.2467 382.146 71.6633 376.642 69.6414 373.496C67.5073 370.126 63.6882 366.42 54.3652 360.578V250.495C54.3652 141.872 54.3652 140.412 52.1187 138.166C50.7708 136.705 48.412 135.919 45.7162 135.919C42.7958 135.807 38.1905 137.604 30.777 141.423C24.9361 144.568 19.7692 146.703 19.3199 146.253C18.7583 145.804 18.4213 143.782 18.4213 141.872C18.4213 138.278 18.8706 137.941 36.7302 128.393C46.7272 123.001 57.5103 117.722 60.5431 116.598C63.6882 115.475 69.5291 114.689 73.7974 114.576V114.576ZM247.564 115.026C263.626 115.363 267.446 115.812 275.982 118.396C281.374 119.968 289.461 123.113 293.954 125.36C298.447 127.607 305.074 131.538 308.781 134.122C312.488 136.593 319.003 141.985 323.271 146.029C327.539 150.073 333.493 156.588 336.413 160.632C339.446 164.675 343.939 171.752 346.298 176.358C348.656 180.963 351.689 187.928 353.037 191.859C354.385 195.678 356.295 203.541 357.193 209.27C358.541 216.684 358.878 223.536 358.541 233.646C358.092 242.408 357.081 251.057 355.621 256.673C354.385 261.616 352.475 267.682 351.465 270.153C350.454 272.624 348.095 277.679 346.185 281.386C344.388 285.093 340.457 291.383 337.424 295.427C334.503 299.471 328.101 306.548 323.271 311.153C318.441 315.759 310.915 321.937 306.535 324.858C302.266 327.778 295.751 331.373 292.269 332.945C288.675 334.518 281.374 337.214 275.982 338.786C267.67 341.37 263.402 341.819 248.126 342.269C233.074 342.718 228.581 342.493 220.044 340.584C214.541 339.348 206.453 336.989 202.072 335.304C197.804 333.507 190.952 330.137 186.909 327.778C182.977 325.307 176.912 321.263 173.542 318.679C170.285 316.096 164.219 310.479 160.288 306.099C156.244 301.718 150.628 294.753 147.82 290.372C145.011 285.992 140.968 278.465 138.834 273.523C136.812 268.58 134.004 259.931 132.768 254.427C131.083 247.125 130.522 240.161 130.409 229.153C130.409 220.84 130.971 210.955 131.757 207.248C132.543 203.541 134.228 197.251 135.464 193.207C136.812 189.163 139.957 181.637 142.653 176.358C145.348 171.078 150.965 162.541 155.233 157.262C159.501 151.982 166.578 144.681 170.958 140.974C175.339 137.267 181.629 132.549 184.887 130.639C188.144 128.618 195.221 125.135 200.388 122.889C205.667 120.53 214.316 117.834 219.483 116.711C227.233 115.026 232.625 114.689 247.564 115.026V115.026ZM191.963 136.368C189.492 137.829 185.561 140.861 183.314 143.108C180.955 145.355 177.81 149.286 176.35 151.982C174.778 154.566 172.082 161.305 170.285 166.81C168.375 172.314 166.241 181.188 165.567 186.467C164.668 192.421 164.444 201.632 164.781 211.18C165.23 221.29 166.241 229.49 167.926 235.892C169.274 241.172 172.194 249.709 174.441 254.988C176.687 260.268 180.955 268.356 183.988 272.961C187.021 277.567 193.536 285.43 198.59 290.372C203.645 295.315 212.743 302.729 218.921 306.885C225.099 311.041 233.973 316.096 238.578 318.23C243.296 320.364 250.372 322.948 254.304 324.184C259.358 325.532 265.424 326.206 273.399 326.318C284.182 326.318 285.867 325.981 292.382 322.948C297.324 320.589 301.368 317.668 305.187 313.4C308.219 310.03 312.375 303.74 314.51 299.359C316.532 294.978 319.34 287.452 320.575 282.509C322.26 276.443 323.271 268.58 323.72 258.358C324.057 248.81 323.833 239.599 322.934 233.646C322.148 228.366 320.238 219.829 318.778 214.55C317.205 209.27 313.723 200.396 310.915 194.892C308.107 189.388 303.614 181.75 301.031 178.043C298.335 174.336 292.943 168.27 289.012 164.451C285.081 160.744 277.779 154.903 272.837 151.645C267.895 148.275 260.144 143.67 255.427 141.423C250.821 139.064 242.959 135.807 238.016 134.234C231.951 132.212 225.773 131.089 218.921 130.752C211.957 130.415 207.015 130.864 202.634 131.987C199.264 132.998 194.434 135.02 191.963 136.368V136.368ZM422.791 114.689C428.744 114.576 432.338 115.138 435.147 116.598C437.168 117.609 439.977 119.968 441.324 121.653C443.459 124.574 443.683 126.82 444.694 178.155L562.635 115.25L572.745 114.801C580.832 114.464 583.64 114.801 586.785 116.486C588.807 117.609 591.615 119.968 592.963 121.653C595.21 124.798 595.21 125.697 595.771 326.88L598.916 328.789C600.601 329.8 604.533 331.485 607.565 332.496C612.845 334.293 613.182 334.63 613.743 342.606H593.525C575.89 342.606 572.857 342.381 569.15 340.471C566.791 339.348 563.759 337.102 562.411 335.641C561.063 334.293 559.153 331.148 558.255 328.901C556.682 325.195 556.457 313.625 556.457 236.791C556.457 188.377 555.896 146.59 555.447 143.782C554.885 140.974 553.425 138.053 552.301 137.267C551.178 136.481 548.37 135.919 546.124 135.919C542.754 135.919 531.634 141.423 444.133 188.152L443.571 342.044L404.819 342.606V245.216C404.819 188.714 404.37 145.804 403.696 143.22C403.134 140.749 401.786 138.053 400.663 137.267C399.54 136.481 396.956 135.919 394.71 135.919C392.238 135.919 387.072 137.829 381.006 140.974C375.614 143.782 370.672 145.804 369.998 145.467C369.437 145.13 368.875 143.22 368.875 141.311C368.875 137.604 369.1 137.492 388.756 127.045C399.764 121.204 410.098 116.037 411.558 115.587C413.131 115.138 418.186 114.689 422.791 114.689V114.689ZM745.163 114.689C754.149 114.576 764.371 115.25 770.212 116.261C775.603 117.16 784.14 119.294 789.307 120.867C794.362 122.552 802.337 125.697 806.942 128.056C811.66 130.415 818.174 134.571 821.544 137.267C825.026 140.075 830.642 145.804 834.125 150.073C837.607 154.341 841.763 160.632 843.56 164.001C845.357 167.708 846.593 171.977 846.705 174.673C846.705 177.144 845.806 180.963 844.795 183.097C843.784 185.232 840.752 189.276 837.944 192.084C833.9 196.128 818.287 205.002 684.62 276.893L687.878 280.824C689.562 282.959 694.729 288.35 699.335 292.731C703.828 297.112 710.343 302.616 713.712 305.088C717.194 307.559 723.485 311.715 727.753 314.299C732.134 316.77 740.221 320.477 745.725 322.274C752.689 324.633 759.204 325.981 766.505 326.43C774.817 326.992 778.861 326.767 784.477 325.307C788.521 324.184 794.249 322.049 797.282 320.364C800.315 318.679 806.605 313.962 811.323 309.918C816.04 305.874 821.993 299.808 824.689 296.438C827.273 293.068 830.193 289.361 831.092 288.126C832.777 285.879 832.889 285.992 835.585 289.249C837.157 291.046 838.393 292.844 838.505 293.181C838.505 293.518 835.585 297.224 831.99 301.605C828.284 305.986 822.106 312.277 818.062 315.647C813.906 319.016 806.605 324.184 801.775 326.992C796.945 329.912 789.419 333.619 785.039 335.304C780.77 336.989 772.683 339.348 767.067 340.584C758.755 342.381 754.037 342.718 739.547 342.269C726.517 341.932 719.89 341.258 713.151 339.348C708.208 338.113 699.672 334.743 694.055 332.047C688.552 329.463 679.903 324.184 674.96 320.477C670.018 316.77 663.054 310.479 659.347 306.548C655.753 302.616 649.912 295.09 646.43 289.811C642.948 284.531 638.455 276.219 636.545 271.276C634.636 266.334 632.164 258.246 631.041 253.304C629.469 246.676 629.019 240.049 629.019 228.029C629.019 215.111 629.581 209.72 631.603 201.632C632.951 196.128 635.983 187.478 638.342 182.536C640.701 177.593 644.745 170.292 647.553 166.248C650.249 162.204 655.977 155.24 660.358 150.634C664.739 146.141 671.59 139.963 675.522 136.93C679.566 133.897 686.642 129.404 691.247 127.045C695.965 124.574 703.041 121.541 706.973 120.193C711.017 118.845 717.868 117.048 722.137 116.261C726.517 115.475 736.851 114.689 745.163 114.689V114.689ZM695.179 134.571C691.472 136.368 686.08 140.3 683.048 143.333C679.902 146.59 675.746 152.544 673.163 157.823C670.804 162.766 667.659 170.854 666.424 175.796C664.289 183.434 663.952 187.928 663.84 205.563C663.84 218.706 664.289 228.816 665.3 233.084C666.087 236.791 667.884 243.643 669.456 248.249C670.917 252.854 673.837 259.482 675.859 262.852C677.993 266.221 680.127 268.917 680.689 268.805C681.25 268.693 691.584 263.301 703.603 256.898C715.734 250.495 742.018 236.454 762.012 225.783C782.118 215.111 799.753 205.339 801.213 203.991C802.674 202.755 804.583 200.059 805.594 198.262C806.493 196.465 807.279 192.421 807.391 189.276C807.391 185.344 806.38 181.637 804.134 176.919C802 172.314 798.068 167.259 791.89 161.193C786.948 156.251 779.31 149.848 774.929 146.927C770.661 144.007 763.585 140.075 759.204 138.166C754.936 136.144 747.634 133.56 742.917 132.437C738.311 131.201 729.775 130.078 723.822 129.741C717.981 129.516 710.68 129.741 707.534 130.302C704.502 130.864 698.885 132.886 695.179 134.571V134.571ZM1159.87 114.913C1167.73 115.138 1170.2 115.587 1172.78 117.497C1174.58 118.733 1176.83 121.541 1177.95 123.675C1179.75 127.27 1179.86 134.459 1179.86 326.88L1186.94 330.249C1190.76 332.047 1194.58 333.619 1195.36 333.619C1196.15 333.619 1197.27 334.63 1197.83 335.866C1198.51 337.102 1198.73 339.123 1198.39 340.359C1197.94 342.493 1196.93 342.606 1177.61 342.606C1161.33 342.606 1156.72 342.269 1153.8 340.808C1151.78 339.797 1148.97 337.888 1147.51 336.54C1146.05 335.304 1144.03 332.608 1143.02 330.811C1141.33 327.778 1141.11 318.23 1140.55 234.769C1140.1 148.837 1139.87 141.76 1138.08 138.952C1136.39 136.481 1135.27 135.919 1131.34 135.919C1127.85 135.919 1123.92 137.267 1116.73 140.974C1111.34 143.782 1106.4 145.804 1105.73 145.467C1105.16 145.13 1104.6 143.22 1104.6 141.311C1104.6 137.604 1104.94 137.492 1125.16 126.708C1136.39 120.754 1146.61 115.7 1147.85 115.363C1149.08 115.026 1154.48 114.801 1159.87 114.913V114.913ZM1267.47 114.689C1273.54 114.576 1277.02 115.138 1279.83 116.598C1281.85 117.609 1284.66 119.968 1286.01 121.653C1288.14 124.686 1288.25 126.483 1288.93 192.645L1297.46 177.481C1302.18 169.169 1309.6 157.037 1313.98 150.522C1318.36 144.007 1326 134.683 1330.94 129.629C1336.67 123.9 1342.28 119.407 1346.1 117.609C1350.48 115.475 1354.08 114.576 1358.23 114.576C1361.83 114.576 1365.76 115.475 1368.34 116.711C1370.59 117.946 1374.18 120.53 1376.09 122.664C1378.11 124.686 1380.47 128.281 1381.48 130.639C1382.38 132.886 1383.17 137.155 1383.17 140.188C1383.17 143.108 1382.27 147.489 1381.15 149.96C1380.02 152.431 1377.1 156.363 1374.74 158.722C1371.94 161.418 1368.12 163.664 1364.64 164.675C1361.15 165.686 1354.19 166.248 1346.1 166.248C1338.01 166.248 1330.71 166.922 1326.44 167.933C1322.74 168.944 1318.24 170.741 1316.34 171.977C1314.54 173.212 1309.93 178.38 1306.11 183.434C1302.41 188.489 1296.9 196.465 1288.82 209.495V342.606H1249.5L1249.28 242.295C1248.94 148.949 1248.83 141.76 1247.03 138.952C1245.35 136.481 1244.22 135.919 1240.29 135.919C1236.81 135.919 1232.88 137.267 1225.69 140.974C1220.3 143.782 1215.36 145.804 1214.68 145.467C1214.12 145.13 1213.56 143.22 1213.56 141.311C1213.56 137.604 1213.89 137.492 1234.11 126.708C1245.35 120.754 1255.57 115.7 1256.8 115.363C1258.04 115.026 1262.87 114.801 1267.47 114.689V114.689ZM1459.32 114.689C1463.82 114.576 1469.1 115.25 1471.12 116.149C1473.14 116.935 1476.06 119.07 1480.33 123.787L1480.89 325.756L1484.04 328.115C1485.72 329.351 1489.99 331.485 1493.58 332.833C1499.65 335.192 1500.1 335.529 1499.99 342.606H1479.54C1460.45 342.606 1458.65 342.493 1453.93 340.134C1451.01 338.562 1447.53 335.529 1442.14 327.778L1441.58 234.207C1441.02 142.546 1441.02 140.637 1438.77 138.278C1437.31 136.593 1435.17 135.807 1432.37 135.919C1429.67 135.919 1424.5 137.716 1417.99 140.974C1412.49 143.782 1407.43 146.029 1406.76 146.029C1406.2 146.029 1405.63 144.119 1405.63 137.604L1424.84 127.494C1435.29 121.99 1445.51 116.823 1447.53 116.037C1449.55 115.25 1454.83 114.689 1459.32 114.689V114.689Z" clip-rule="evenodd"/></svg>