<svg xmlns="http://www.w3.org/2000/svg" width="36" height="36" fill="none" viewBox="0 0 36 36"><circle cx="18" cy="18" r="18" fill="#F8FAFC"/><path stroke="#64748B" stroke-linecap="round" stroke-linejoin="round" stroke-width="2" d="M14.0571 12.1143C14.0571 13.2055 14.4906 14.2519 15.2622 15.0235C16.0338 15.7951 17.0802 16.2286 18.1714 16.2286C19.2626 16.2286 20.3091 15.7951 21.0807 15.0235C21.8522 14.2519 22.2857 13.2055 22.2857 12.1143C22.2857 11.0231 21.8522 9.97662 21.0807 9.20505C20.3091 8.43347 19.2626 8 18.1714 8C17.0802 8 16.0338 8.43347 15.2622 9.20505C14.4906 9.97662 14.0571 11.0231 14.0571 12.1143Z"/><path stroke="#64748B" stroke-linecap="round" stroke-linejoin="round" stroke-width="2" d="M12 26.5142V24.4571C12 23.3659 12.4335 22.3194 13.205 21.5478C13.9766 20.7762 15.0231 20.3428 16.1143 20.3428H20.2286C21.3197 20.3428 22.3662 20.7762 23.1378 21.5478C23.9094 22.3194 24.3429 23.3659 24.3429 24.4571V26.5142"/></svg>