<svg xmlns="http://www.w3.org/2000/svg" width="129" height="129" fill="none" viewBox="0 0 129 129"><rect width="56.784" height="15.143" x="4.189" y="11.71" fill="#3B82F6" rx="1.514"/><rect width="56.784" height="15.143" x="68.545" y="11.71" fill="#3B82F6" rx="1.514"/><rect width="56.784" height="22.714" x="4.189" y="34.424" fill="url(#paint0_linear_4190_45)" rx="1.514"/><rect width="56.784" height="22.714" x="68.545" y="34.424" fill="url(#paint1_linear_4190_45)" rx="1.514"/><rect width="56.784" height="22.714" x="4.189" y="64.709" fill="url(#paint2_linear_4190_45)" rx="1.514"/><rect width="56.784" height="22.714" x="68.545" y="64.709" fill="url(#paint3_linear_4190_45)" rx="1.514"/><rect width="56.784" height="22.714" x="4.189" y="94.994" fill="url(#paint4_linear_4190_45)" rx="1.514"/><rect width="56.784" height="22.714" x="68.545" y="94.994" fill="url(#paint5_linear_4190_45)" rx="1.514"/><defs><linearGradient id="paint0_linear_4190_45" x1="4.189" x2="19.854" y1="34.424" y2="73.585" gradientUnits="userSpaceOnUse"><stop stop-color="#38BDF8"/><stop offset="1" stop-color="#60A5FA"/></linearGradient><linearGradient id="paint1_linear_4190_45" x1="68.545" x2="84.21" y1="34.424" y2="73.585" gradientUnits="userSpaceOnUse"><stop stop-color="#38BDF8"/><stop offset="1" stop-color="#60A5FA"/></linearGradient><linearGradient id="paint2_linear_4190_45" x1="4.189" x2="19.854" y1="64.709" y2="103.871" gradientUnits="userSpaceOnUse"><stop stop-color="#38BDF8"/><stop offset="1" stop-color="#60A5FA"/></linearGradient><linearGradient id="paint3_linear_4190_45" x1="68.545" x2="84.21" y1="64.709" y2="103.871" gradientUnits="userSpaceOnUse"><stop stop-color="#38BDF8"/><stop offset="1" stop-color="#60A5FA"/></linearGradient><linearGradient id="paint4_linear_4190_45" x1="4.189" x2="19.854" y1="94.994" y2="134.156" gradientUnits="userSpaceOnUse"><stop stop-color="#38BDF8"/><stop offset="1" stop-color="#60A5FA"/></linearGradient><linearGradient id="paint5_linear_4190_45" x1="68.545" x2="84.21" y1="94.994" y2="134.156" gradientUnits="userSpaceOnUse"><stop stop-color="#38BDF8"/><stop offset="1" stop-color="#60A5FA"/></linearGradient></defs></svg>