<svg xmlns="http://www.w3.org/2000/svg" width="1144" height="96" fill="none" viewBox="0 0 1144 96"><rect width="43.031" height="11.475" x=".759" y="7.838" fill="#3B82F6" rx="1.147"/><rect width="43.031" height="11.475" x="49.528" y="7.838" fill="#3B82F6" rx="1.147"/><rect width="43.031" height="17.212" x=".759" y="25.051" fill="url(#paint0_linear_4427_30)" rx="1.147"/><rect width="43.031" height="17.212" x="49.528" y="25.051" fill="url(#paint1_linear_4427_30)" rx="1.147"/><rect width="43.031" height="17.212" x=".759" y="48.001" fill="url(#paint2_linear_4427_30)" rx="1.147"/><rect width="43.031" height="17.212" x="49.528" y="48.001" fill="url(#paint3_linear_4427_30)" rx="1.147"/><rect width="43.031" height="17.212" x=".759" y="70.951" fill="url(#paint4_linear_4427_30)" rx="1.147"/><rect width="43.031" height="17.212" x="49.528" y="70.951" fill="url(#paint5_linear_4427_30)" rx="1.147"/><path fill="#0E132E" d="M172.913 94.792C145.905 94.792 126.321 74.568 126.321 48.2C126.321 21.832 145.905 1.60799 172.913 1.60799C189.169 1.60799 203.505 9.672 211.313 22.344L193.649 32.584C189.681 25.672 182.001 21.576 172.913 21.576C157.041 21.576 146.801 32.2 146.801 48.2C146.801 64.2 157.041 74.824 172.913 74.824C182.001 74.824 189.809 70.728 193.649 63.816L211.313 74.056C203.633 86.728 189.297 94.792 172.913 94.792ZM255.185 29H274.385V93H255.185V86.984C251.729 91.72 245.329 94.792 236.881 94.792C223.953 94.792 212.945 85.576 212.945 68.296V29H232.145V65.48C232.145 73.416 237.137 77.128 243.281 77.128C250.321 77.128 255.185 73.032 255.185 63.944V29ZM298.337 47.688C298.337 54.984 329.825 50.12 329.825 73.8C329.825 88.52 317.025 94.792 303.201 94.792C290.401 94.792 280.673 89.928 275.681 79.56L292.321 70.088C293.985 74.952 297.569 77.64 303.201 77.64C307.809 77.64 310.113 76.232 310.113 73.672C310.113 66.632 278.625 70.344 278.625 48.2C278.625 34.248 290.401 27.208 303.713 27.208C314.081 27.208 323.297 31.816 328.673 40.904L312.289 49.736C310.497 46.408 307.937 44.104 303.713 44.104C300.385 44.104 298.337 45.384 298.337 47.688ZM367.36 47.432H354.176V70.088C354.176 75.592 358.912 76.104 367.36 75.592V93C342.272 95.56 334.976 88.008 334.976 70.088V47.432H324.736V29H334.976V16.84L354.176 11.08V29H367.36V47.432ZM400.021 94.792C381.205 94.792 366.101 80.072 366.101 61C366.101 41.928 381.205 27.208 400.021 27.208C418.837 27.208 433.941 41.928 433.941 61C433.941 80.072 418.837 94.792 400.021 94.792ZM400.021 76.104C408.341 76.104 414.741 70.088 414.741 61C414.741 51.912 408.341 45.896 400.021 45.896C391.701 45.896 385.301 51.912 385.301 61C385.301 70.088 391.701 76.104 400.021 76.104ZM508.801 27.208C523.521 27.208 533.121 37.704 533.121 53.704V93H513.921V55.368C513.921 48.968 510.849 44.872 504.705 44.872C498.305 44.872 494.721 49.352 494.721 56.904V93H475.521V55.368C475.521 48.968 472.449 44.872 466.305 44.872C459.905 44.872 456.321 49.352 456.321 56.904V93H437.121V29H456.321V34.888C459.265 30.536 464.897 27.208 473.473 27.208C481.025 27.208 486.657 30.28 490.241 35.656C493.825 30.536 499.713 27.208 508.801 27.208ZM652.23 43.08V50.76C652.23 78.152 633.158 94.792 608.07 94.792C579.91 94.792 559.686 74.056 559.686 48.328C559.686 22.344 580.294 1.60799 606.662 1.60799C623.814 1.60799 638.278 10.056 645.83 22.088L628.422 32.072C624.71 26.184 616.646 21.576 606.534 21.576C591.43 21.576 580.166 32.712 580.166 48.456C580.166 63.688 590.918 74.824 608.326 74.824C620.23 74.824 628.038 69.576 631.238 61H607.302V43.08H652.23ZM674.656 40.392C677.216 31.816 685.792 27.72 693.856 27.72V49.48C685.92 48.2 674.656 51.4 674.656 64.072V93H655.456V29H674.656V40.392ZM704.751 23.368C698.479 23.368 693.231 18.12 693.231 11.848C693.231 5.576 698.479 0.327995 704.751 0.327995C711.023 0.327995 716.271 5.576 716.271 11.848C716.271 18.12 711.023 23.368 704.751 23.368ZM695.151 93V29H714.351V93H695.151ZM767.185 3.39999H786.385V93H767.185V86.984C762.961 91.848 756.689 94.792 748.113 94.792C731.345 94.792 717.521 80.072 717.521 61C717.521 41.928 731.345 27.208 748.113 27.208C756.689 27.208 762.961 30.152 767.185 35.016V3.39999ZM751.953 76.616C760.785 76.616 767.185 70.6 767.185 61C767.185 51.4 760.785 45.384 751.953 45.384C743.121 45.384 736.721 51.4 736.721 61C736.721 70.6 743.121 76.616 751.953 76.616ZM810.342 47.688C810.342 54.984 841.83 50.12 841.83 73.8C841.83 88.52 829.03 94.792 815.206 94.792C802.406 94.792 792.678 89.928 787.686 79.56L804.326 70.088C805.99 74.952 809.574 77.64 815.206 77.64C819.814 77.64 822.118 76.232 822.118 73.672C822.118 66.632 790.63 70.344 790.63 48.2C790.63 34.248 802.406 27.208 815.718 27.208C826.086 27.208 835.302 31.816 840.678 40.904L824.294 49.736C822.502 46.408 819.942 44.104 815.718 44.104C812.39 44.104 810.342 45.384 810.342 47.688Z"/><path fill="#0E132E" d="M905.347 31.5C921.752 31.5 933.397 44.845 933.397 61.25C933.397 77.655 921.752 91 905.347 91H882.992V31.5H905.347ZM905.347 86.75C919.372 86.75 928.977 75.36 928.977 61.25C928.977 47.14 919.372 35.75 905.347 35.75H887.497V86.75H905.347ZM944.154 86.75H973.904V91H939.649V31.5H973.479V35.75H944.154V58.87H971.354V63.12H944.154V86.75ZM1033.68 31.5V91H1029.17V38.13L1007.16 74.68H1006.39L984.377 38.13V91H979.872V31.5H985.482L1006.73 66.69L1027.98 31.5H1033.68ZM1070.62 91.935C1053.45 91.935 1039.94 78.25 1039.94 61.25C1039.94 44.25 1053.45 30.565 1070.62 30.565C1087.79 30.565 1101.31 44.25 1101.31 61.25C1101.31 78.25 1087.79 91.935 1070.62 91.935ZM1070.62 87.6C1085.33 87.6 1096.8 75.87 1096.8 61.25C1096.8 46.63 1085.33 34.9 1070.62 34.9C1055.92 34.9 1044.44 46.63 1044.44 61.25C1044.44 75.87 1055.92 87.6 1070.62 87.6ZM1123.66 91.935C1112.53 91.935 1104.62 86.325 1101.9 77.91L1105.81 75.615C1107.85 82.755 1113.89 87.6 1123.66 87.6C1133.61 87.6 1138.62 82.5 1138.62 75.7C1138.62 68.56 1132.33 65.84 1123.24 62.95C1113.29 59.72 1104.37 56.915 1104.37 46.545C1104.37 36.77 1112.27 30.565 1122.39 30.565C1132.16 30.565 1138.62 36.175 1141.51 43.06L1137.69 45.185C1135.48 39.83 1130.89 34.9 1122.39 34.9C1114.14 34.9 1108.96 39.745 1108.96 46.375C1108.96 53.515 1114.99 55.725 1123.49 58.53C1134.03 62.015 1143.21 65.33 1143.21 75.615C1143.21 85.475 1135.48 91.935 1123.66 91.935Z"/><defs><linearGradient id="paint0_linear_4427_30" x1=".759" x2="12.63" y1="25.051" y2="54.727" gradientUnits="userSpaceOnUse"><stop stop-color="#38BDF8"/><stop offset="1" stop-color="#60A5FA"/></linearGradient><linearGradient id="paint1_linear_4427_30" x1="49.528" x2="61.399" y1="25.051" y2="54.727" gradientUnits="userSpaceOnUse"><stop stop-color="#38BDF8"/><stop offset="1" stop-color="#60A5FA"/></linearGradient><linearGradient id="paint2_linear_4427_30" x1=".759" x2="12.63" y1="48.001" y2="77.678" gradientUnits="userSpaceOnUse"><stop stop-color="#38BDF8"/><stop offset="1" stop-color="#60A5FA"/></linearGradient><linearGradient id="paint3_linear_4427_30" x1="49.528" x2="61.399" y1="48.001" y2="77.678" gradientUnits="userSpaceOnUse"><stop stop-color="#38BDF8"/><stop offset="1" stop-color="#60A5FA"/></linearGradient><linearGradient id="paint4_linear_4427_30" x1=".759" x2="12.63" y1="70.951" y2="100.628" gradientUnits="userSpaceOnUse"><stop stop-color="#38BDF8"/><stop offset="1" stop-color="#60A5FA"/></linearGradient><linearGradient id="paint5_linear_4427_30" x1="49.528" x2="61.399" y1="70.951" y2="100.628" gradientUnits="userSpaceOnUse"><stop stop-color="#38BDF8"/><stop offset="1" stop-color="#60A5FA"/></linearGradient></defs></svg>